<svg width="76" height="56" viewBox="0 0 76 56" fill="none" xmlns="http://www.w3.org/2000/svg">
<g id="Amnesty" clip-path="url(#clip0_21283_159)">
<g id="Vector">
<path d="M0.413088 31.1102L2.5678 19.0831H5.0696L7.19238 31.1102H5.25089L4.91161 28.5071H2.70979L2.32306 31.1102H0.413088ZM3.01755 26.6353H4.61934L3.79108 21.0434L3.01755 26.6353Z" fill="#858585"/>
<path d="M8.20842 31.1102V19.0831H10.8285L12.1703 25.43C12.2227 25.6766 12.2714 26.0274 12.3161 26.4824C12.3607 26.9378 12.4044 27.4815 12.4466 28.1135C12.4568 27.5135 12.4818 26.9781 12.5215 26.5065C12.5608 26.0354 12.6095 25.6658 12.6676 25.3979L14.0247 19.0831H16.6136V31.1102H14.7904L14.8063 23.341C14.8063 23.2448 14.8178 22.9836 14.8415 22.5578C14.8653 22.1319 14.9009 21.5333 14.9484 20.7621C14.9009 21.0408 14.8428 21.3674 14.7745 21.7424C14.7061 22.1174 14.6087 22.6291 14.4826 23.2768L12.9119 31.1102H11.8941L10.3234 23.2768C10.1973 22.6291 10.1 22.1174 10.0316 21.7424C9.96283 21.3674 9.90517 21.0408 9.85764 20.7621C9.90517 21.5333 9.94079 22.1319 9.96451 22.5578C9.98822 22.9836 10.0001 23.2448 10.0001 23.341L10.0156 31.1102H8.20842Z" fill="#858585"/>
<path d="M17.9717 31.1102V19.0831H19.779L22.0756 25.5024C22.1702 25.7704 22.2623 26.0887 22.3519 26.4586C22.4411 26.8282 22.5278 27.2323 22.6121 27.6714H22.6752C22.5913 27.1681 22.5267 26.7103 22.4821 26.2978C22.4374 25.8854 22.4149 25.532 22.4149 25.2371V19.0831H24.1432V31.1102H22.4939L20.0392 24.1847C19.9131 23.8314 19.8051 23.4777 19.7159 23.1244C19.6262 22.7707 19.5555 22.4174 19.5027 22.0637H19.4397C19.5288 22.4978 19.5947 22.9382 19.6369 23.3852C19.679 23.8326 19.6999 24.2971 19.6999 24.7792V31.1102H17.9717Z" fill="#858585"/>
<path d="M25.5821 31.1102V19.0831H30.9962V20.9551H27.5551V23.968H30.1911V25.8641H27.5551V29.2141H31.2094V31.1102H25.5821Z" fill="#858585"/>
<path d="M32.0197 27.9689L33.8584 27.6877C33.9583 28.3038 34.1163 28.7618 34.3316 29.0617C34.5476 29.3617 34.8316 29.5112 35.1844 29.5112C35.5364 29.5112 35.8155 29.4029 36.0209 29.1858C36.2264 28.9692 36.3287 28.6788 36.3287 28.3143C36.3287 27.6714 35.6264 26.7103 34.221 25.43C34.0058 25.232 33.8429 25.0791 33.7324 24.9721C33.2634 24.5384 32.9033 24.051 32.6512 23.5098C32.3982 22.969 32.2722 22.4145 32.2722 21.847C32.2722 20.9846 32.548 20.2776 33.1013 19.726C33.653 19.1743 34.3586 18.8981 35.2155 18.8981C36.021 18.8981 36.6709 19.1448 37.1652 19.6372C37.6596 20.1301 37.9649 20.8346 38.0803 21.7504L36.2812 22.0316C36.2182 21.555 36.0888 21.1908 35.8949 20.9388C35.7001 20.6871 35.4529 20.5613 35.1525 20.5613C34.8423 20.5613 34.5927 20.6725 34.4027 20.8946C34.2136 21.1171 34.1187 21.4079 34.1187 21.7666C34.1187 22.0878 34.2055 22.397 34.379 22.6944C34.5525 22.9919 34.934 23.4164 35.5233 23.968C35.6076 24.0481 35.7336 24.1689 35.9023 24.3292C37.4492 25.765 38.2227 27.0611 38.2227 28.2181C38.2227 29.1179 37.9395 29.8583 37.3739 30.4395C36.8083 31.0206 36.079 31.3111 35.1844 31.3111C34.2898 31.3111 33.5663 31.0194 33.0146 30.4353C32.4617 29.8516 32.1302 29.0292 32.0197 27.9689Z" fill="#858585"/>
<path d="M40.8567 31.1102V20.9067H38.9078V19.0831H44.8027V20.9067H42.8457V31.1102H40.8567Z" fill="#858585"/>
<path d="M48.5195 31.1102V26.1211L46.199 19.0831H48.1643L49.2692 22.8348C49.3216 23.0227 49.3692 23.2569 49.4109 23.5381C49.4534 23.8193 49.4846 24.1418 49.5058 24.5064C49.5427 24.0939 49.5811 23.7456 49.6204 23.4618C49.6597 23.1777 49.7031 22.9636 49.7505 22.819L50.8637 19.0831H52.8207L50.4921 26.1211V31.1102H48.5195Z" fill="#858585"/>
<path d="M0.138916 41.7129V34.4836H1.32456V41.7129H0.138916Z" fill="#858585"/>
<path d="M2.55807 41.7129V34.4836H3.64422L5.02457 38.3424C5.08148 38.5033 5.13714 38.6949 5.19079 38.9174C5.24443 39.139 5.2968 39.3823 5.34752 39.6456H5.38515C5.33486 39.344 5.29597 39.0682 5.26898 38.8207C5.24232 38.5724 5.22883 38.3599 5.22883 38.1825V34.4836H6.26755V41.7129H5.27628L3.80096 37.5508C3.72486 37.3375 3.66015 37.1259 3.60659 36.9126C3.55253 36.701 3.50995 36.4877 3.47845 36.2751H3.44039C3.49403 36.5359 3.53367 36.8009 3.55907 37.0692C3.58446 37.3392 3.5967 37.6175 3.5967 37.9075V41.7129H2.55807Z" fill="#858585"/>
<path d="M8.17912 41.7129V35.5794H7.00747V34.4836H10.5512V35.5794H9.37457V41.7129H8.17912Z" fill="#858585"/>
<path d="M11.3005 41.7129V34.4836H14.5549V35.6094H12.4865V37.42H14.0707V38.5591H12.4865V40.5739H14.6826V41.7129H11.3005Z" fill="#858585"/>
<path d="M19.4315 41.7129H18.2267L17.3726 38.7091C17.2998 38.7157 17.2199 38.7224 17.1332 38.729C17.046 38.7348 16.9617 38.7382 16.8794 38.7382H16.7132V41.7129H15.5179V34.4836H17.0927C17.5514 34.4836 17.8952 34.5137 18.1243 34.5728C18.354 34.6328 18.557 34.7312 18.7342 34.8702C18.949 35.0411 19.1176 35.2794 19.2392 35.5877C19.3611 35.8943 19.4217 36.2352 19.4217 36.6085C19.4217 37.0458 19.3403 37.4259 19.1778 37.7459C19.0145 38.0658 18.7722 38.3224 18.4493 38.5157L19.4315 41.7129ZM16.7132 37.7342C16.7481 37.7408 16.7836 37.7441 16.8201 37.7459C16.8565 37.7475 16.911 37.7483 16.9838 37.7483C17.4262 37.7483 17.7409 37.6575 17.9276 37.4759C18.1141 37.2934 18.2075 36.9884 18.2075 36.5601C18.2075 36.1743 18.1174 35.8927 17.9369 35.7177C17.7569 35.5427 17.4659 35.4544 17.0644 35.4544C16.9949 35.4544 16.8888 35.4594 16.7464 35.4694C16.7305 35.4727 16.7194 35.4736 16.7132 35.4736V37.7342Z" fill="#858585"/>
<path d="M20.4604 41.7129V34.4836H21.5465L22.9269 38.3424C22.9839 38.5033 23.0395 38.6949 23.0931 38.9174C23.1467 39.139 23.1991 39.3823 23.2499 39.6456H23.2875C23.2371 39.344 23.1983 39.0682 23.1713 38.8207C23.1447 38.5724 23.1312 38.3599 23.1312 38.1825V34.4836H24.1698V41.7129H23.1786L21.7033 37.5508C21.6271 37.3375 21.5625 37.1259 21.5089 36.9126C21.4549 36.701 21.4123 36.4877 21.3808 36.2751H21.3428C21.3963 36.5359 21.436 36.8009 21.4614 37.0692C21.4868 37.3392 21.4991 37.6175 21.4991 37.9075V41.7129H20.4604Z" fill="#858585"/>
<path d="M24.8582 41.7129L26.1531 34.4836H27.6567L28.9327 41.7129H27.766L27.5622 40.1489H26.2386L26.0061 41.7129H24.8582ZM26.4236 39.0232H27.3866L26.8885 35.6619L26.4236 39.0232Z" fill="#858585"/>
<path d="M30.0381 41.7129V35.5794H28.8664V34.4836H32.4102V35.5794H31.2336V41.7129H30.0381Z" fill="#858585"/>
<path d="M33.1882 41.7129V34.4836H34.3741V41.7129H33.1882Z" fill="#858585"/>
<path d="M35.3457 38.1008C35.3457 36.8676 35.5226 35.9335 35.8745 35.2977C36.2273 34.6611 36.747 34.3437 37.433 34.3437C38.1197 34.3437 38.6386 34.6611 38.9913 35.2977C39.3441 35.9335 39.5201 36.8676 39.5201 38.1008C39.5201 39.3407 39.3441 40.2789 38.9913 40.9155C38.6386 41.5538 38.1197 41.8721 37.433 41.8721C36.747 41.8721 36.2273 41.5538 35.8745 40.9155C35.5226 40.2789 35.3457 39.3407 35.3457 38.1008ZM36.5318 38.1008C36.5318 39.0249 36.6046 39.7048 36.7503 40.1406C36.8951 40.5772 37.1235 40.7955 37.433 40.7955C37.7432 40.7955 37.9707 40.5772 38.1164 40.1406C38.2621 39.7048 38.3341 39.0249 38.3341 38.1008C38.3341 37.1801 38.2621 36.501 38.1164 36.0651C37.9707 35.6294 37.7432 35.411 37.433 35.411C37.1235 35.411 36.8951 35.6294 36.7503 36.0651C36.6046 36.501 36.5318 37.1801 36.5318 38.1008Z" fill="#858585"/>
<path d="M40.4646 41.7129V34.4836H41.5508L42.9316 38.3424C42.9881 38.5033 43.0438 38.6949 43.0978 38.9174C43.151 39.139 43.2034 39.3823 43.2542 39.6456H43.2918C43.241 39.344 43.2025 39.0682 43.1755 38.8207C43.1486 38.5724 43.1355 38.3599 43.1355 38.1825V34.4836H44.1741V41.7129H43.1829L41.7072 37.5508C41.6319 37.3375 41.5664 37.1259 41.5132 36.9126C41.4592 36.701 41.4166 36.4877 41.3847 36.2751H41.347C41.401 36.5359 41.4403 36.8009 41.4657 37.0692C41.491 37.3392 41.5034 37.6175 41.5034 37.9075V41.7129H40.4646Z" fill="#858585"/>
<path d="M44.8616 41.7129L46.1566 34.4836H47.661L48.937 41.7129H47.7699L47.566 40.1489H46.2425L46.01 41.7129H44.8616ZM46.4275 39.0232H47.39L46.8924 35.6619L46.4275 39.0232Z" fill="#858585"/>
<path d="M49.596 41.7129V34.4836H50.7819V40.5739H52.978V41.7129H49.596Z" fill="#858585"/>
<path fill-rule="evenodd" clip-rule="evenodd" d="M69.6493 39.958C69.6624 39.9697 69.6157 39.9806 69.6296 39.9872C69.8154 40.0839 70.0962 40.0089 70.1878 39.8214L70.5242 39.1574L70.999 39.6106C71.1496 39.7506 71.3885 39.7414 71.5285 39.5906C71.6693 39.434 71.6611 39.1948 71.5089 39.0465L71.2879 38.839C72.5075 38.5141 73.3612 38.2407 73.8957 38.0557L73.7836 38.3741C73.714 38.5708 73.8138 38.7907 74.0103 38.8615C74.2026 38.9324 74.4179 38.8273 74.4883 38.6307L74.7363 37.9308L75.265 38.315C75.4328 38.4341 75.6661 38.3974 75.7872 38.2232C75.9067 38.0524 75.8683 37.8141 75.7005 37.6941L75.0006 37.1842L75.306 36.3126C75.378 36.116 75.2749 35.896 75.0792 35.8227C74.886 35.7544 74.6716 35.8568 74.6004 36.0527L74.3655 36.7225L73.8866 36.3751C73.7188 36.2527 73.4839 36.2926 73.3661 36.4634C73.245 36.6342 73.2826 36.8734 73.4537 36.9925L73.8277 37.2692C73.3276 37.4492 72.4207 37.7508 71.0481 38.1158L71.2928 37.6283C71.3885 37.44 71.3124 37.2092 71.1316 37.1159C70.9466 37.0184 70.7199 37.0925 70.6257 37.2808L70.3057 37.9125L69.8776 37.5058C69.8261 37.4542 69.763 37.4317 69.6951 37.4175C69.7319 35.6802 69.7712 33.802 69.8163 32.0314C70.0299 31.9918 70.2394 31.956 70.4432 31.9159L70.2394 32.3547C70.1518 32.543 70.2304 32.7713 70.4178 32.8613C70.6053 32.9513 70.8279 32.8696 70.9179 32.6788L71.2306 32.0093L71.7184 32.4414C71.8756 32.5813 72.1105 32.5655 72.2488 32.408C72.3847 32.248 72.3692 32.0093 72.2136 31.8681L71.9116 31.5993C72.5484 31.4415 73.0837 31.2706 73.4782 31.0881C74.3573 30.6778 74.8239 30.1524 74.8705 29.5254C74.8746 29.475 74.8746 29.4245 74.8713 29.3738L75.4762 29.5845C75.6727 29.6524 75.8846 29.5454 75.9518 29.3491C76.0189 29.1466 75.9157 28.9304 75.7193 28.8625L75.058 28.6326L75.3919 28.1409C75.5097 27.9668 75.4672 27.7314 75.2969 27.6102C75.1259 27.4919 74.8943 27.5339 74.7772 27.7068L74.4015 28.2588C74.0601 27.8276 73.5871 27.4527 73.1508 27.1652L73.1124 27.1381C72.7596 26.9052 72.3708 26.6511 71.9034 26.3982L72.3634 26.0536C72.5296 25.9303 72.5648 25.6904 72.442 25.5203C72.3201 25.3488 72.0851 25.315 71.9173 25.4391L71.3574 25.8599L71.1504 25.3008C71.0776 25.1029 70.8623 25.0029 70.6675 25.0779C70.4734 25.1517 70.3753 25.3712 70.4497 25.5679L70.5258 25.7799C70.4268 25.7437 70.3196 25.7095 70.2156 25.6745C70.4399 24.7496 70.7142 23.6189 70.566 23.0811C70.4383 22.634 69.5756 22.5565 69.5756 22.5565H66.3941C66.0233 21.9882 66.1985 21.8758 66.489 21.1658C66.8033 20.4001 67.2412 20.0813 68.3077 18.8694C68.4755 18.6757 69.9226 16.8584 69.9226 16.8584C70.2705 16.303 70.5014 15.7418 70.5014 15.1672C70.5014 12.5513 68.0565 11.0835 68.0565 11.0835C68.0565 11.0835 67.995 11.7205 67.7429 12.4229C67.4909 13.1245 66.052 13.7636 64.8594 14.2736C63.8084 14.7235 61.9021 14.9219 61.3619 18.289C61.8334 21.9958 64.64 21.7095 64.8594 21.9324C65.028 22.1045 64.942 22.387 64.8676 22.5565H61.5878V25.3267C60.0957 25.6487 58.728 26.114 57.6549 26.5428L57.7572 26.1903C57.817 25.9866 57.704 25.7758 57.5051 25.7154C57.3062 25.655 57.0967 25.7699 57.0393 25.9724L56.8404 26.6523L56.3461 26.3332C56.1709 26.2195 55.9385 26.2728 55.828 26.4499C55.7175 26.6298 55.7674 26.8644 55.9442 26.9777L56.2233 27.1577C55.7084 27.3981 55.3926 27.5681 55.3426 27.5943C55.16 27.6926 55.0905 27.9247 55.1863 28.1097C55.2837 28.2951 55.5104 28.3684 55.6921 28.2672C55.706 28.263 55.9942 28.1084 56.4811 27.8826L56.3494 28.3338C56.2913 28.5343 56.4026 28.7476 56.6015 28.808C56.8004 28.8684 57.0099 28.753 57.0664 28.5505L57.276 27.8373L57.8243 28.1901C58.0003 28.3035 58.2319 28.2501 58.3424 28.0705C58.4521 27.8935 58.4006 27.6576 58.2262 27.5452L57.839 27.2952C58.8606 26.8878 60.1685 26.4357 61.5878 26.114V32.3155L60.1889 32.4671L60.3494 32.1681C60.4501 31.9839 60.3846 31.7539 60.2054 31.6497C60.0211 31.546 59.7937 31.6152 59.6929 31.7981L59.3574 32.4188L58.9399 32.001C58.7926 31.8514 58.5561 31.8548 58.412 32.0035C58.263 32.1547 58.263 32.3947 58.412 32.543L58.6215 32.7521C57.0279 33.1821 56.0154 33.9479 55.882 34.8911C55.8223 35.3152 55.9327 35.8593 56.495 36.4543L55.8656 36.6201C55.6643 36.6742 55.5448 36.8842 55.5997 37.0876C55.652 37.2917 55.8558 37.4117 56.0555 37.3608L56.7635 37.1725L56.7529 37.8308C56.748 38.0408 56.9125 38.2157 57.1188 38.2208C57.3258 38.2232 57.4969 38.0557 57.5027 37.8441L57.5116 37.2558C57.9029 37.4975 58.3702 37.7425 58.9473 37.9875C59.2731 38.1241 59.6954 38.2574 60.18 38.3891L59.7159 38.7874C59.5587 38.924 59.5391 39.1632 59.6709 39.3256C59.8051 39.4856 60.0417 39.5057 60.2021 39.3714L60.7595 38.8899L61.0279 39.4906C61.1131 39.6823 61.3357 39.7673 61.5231 39.6823C61.5485 39.6673 61.5648 39.6506 61.5878 39.634V42.447L69.6296 44.3335C69.6296 44.3335 69.6452 40.1489 69.6493 39.958ZM70.043 26.4244C70.1747 26.4678 70.2999 26.5128 70.4236 26.5599L69.9701 26.8994C69.9726 26.7827 70.0037 26.6182 70.043 26.4244ZM69.9472 27.486C70.0765 27.6031 70.2697 27.6227 70.4145 27.5147L71.0055 27.0719L71.2306 27.691C71.3018 27.8877 71.5195 27.9876 71.7135 27.9134C71.9084 27.8402 72.0066 27.6218 71.9345 27.4219L71.8715 27.2531C72.1801 27.4326 72.4501 27.6114 72.7007 27.7789L72.7432 27.8052C72.8848 27.8993 73.0141 27.9918 73.1352 28.088C73.0534 28.1326 72.9855 28.2051 72.9528 28.3022C72.8848 28.5013 72.9912 28.7196 73.1876 28.7872L73.8784 29.0284L73.5093 29.5704C73.3915 29.7449 73.4332 29.9833 73.6043 30.1016C73.6182 30.1116 73.6338 30.1145 73.6477 30.1216C73.4954 30.2278 73.3243 30.3182 73.168 30.3924C72.8185 30.5565 72.3397 30.7082 71.77 30.8527L71.9566 30.4557C72.0442 30.2649 71.9648 30.037 71.7774 29.947C71.5924 29.8574 71.3673 29.9374 71.2765 30.1282L70.9801 30.7707L70.5382 30.3774C70.381 30.2362 70.1452 30.2532 70.0086 30.4103C69.8719 30.5694 69.8891 30.8106 70.0438 30.9494L70.291 31.1719C70.1436 31.1998 69.9898 31.2281 69.8343 31.2531C69.8702 29.8716 69.9087 28.5763 69.9472 27.486ZM61.5878 37.1842C61.5788 37.1892 61.5706 37.1925 61.5665 37.1958L61.032 37.6541L60.793 37.1126C60.7062 36.9192 60.482 36.8334 60.2945 36.9225C60.1071 37.0075 60.0211 37.235 60.1071 37.4259L60.1889 37.6058C59.8248 37.5033 59.5007 37.3917 59.2354 37.2808C58.854 37.1192 58.5126 36.9526 58.2107 36.7851L58.3981 36.7359C58.5962 36.6826 58.7173 36.4742 58.6632 36.2693C58.6134 36.0677 58.4087 35.9443 58.2074 35.996L57.5329 36.1759L57.5444 35.5776C57.5485 35.3727 57.3823 35.1977 57.1752 35.191C56.9706 35.1886 56.8004 35.3561 56.7946 35.5643L56.7913 35.626C56.658 35.411 56.5982 35.2003 56.6252 34.9978C56.7104 34.3978 57.5362 33.847 58.7673 33.5046L58.5241 33.9537C58.4226 34.1395 58.4898 34.3728 58.6715 34.4745C58.8523 34.5745 59.0799 34.5061 59.1814 34.3212L59.5333 33.6729L59.995 34.1362C60.1439 34.2862 60.3789 34.2828 60.5245 34.1328C60.6694 33.9828 60.6695 33.7412 60.5229 33.5945L60.1685 33.2346C60.1996 33.2329 60.2291 33.2296 60.261 33.2238L61.5878 33.0805V37.1842ZM64.0442 18.5507C64.0442 18.4607 64.3011 17.7366 64.3151 17.6508L64.8553 16.8584C65.2752 16.3984 65.7925 15.9735 66.2394 15.5506C67.1782 14.656 68.5574 13.0617 68.5574 13.0617C68.5574 13.0617 69.3742 14.2095 67.9304 16.5072C67.8535 16.6321 67.499 17.2608 67.4279 17.3704L66.7124 18.289C66.3548 18.7569 66.2337 18.8823 66.052 19.4435C65.736 20.4001 65.3611 21.5495 65.3611 21.5495C65.3611 21.5495 64.0442 20.5292 64.0442 18.5507ZM68.1678 42.2903C67.9189 42.202 63.0734 41.0088 62.9915 40.9772V32.9263C63.3623 32.8863 63.7388 32.8446 64.1219 32.803L63.8845 33.1396C63.7667 33.3113 63.806 33.5496 63.9745 33.6704C64.1448 33.7937 64.3773 33.7512 64.4968 33.5812L64.9215 32.9746L65.3276 33.4879C65.4585 33.6512 65.6942 33.6762 65.8555 33.5438C66.0168 33.4129 66.0429 33.1738 65.9127 33.0079L65.6108 32.628C66.4751 32.5255 67.3386 32.4138 68.1678 32.2922V42.2903ZM68.1678 31.5214C67.3738 31.6381 66.5406 31.7481 65.7032 31.8489L65.8988 31.5718C66.0183 31.3998 65.9774 31.1606 65.8096 31.0398C65.6402 30.9173 65.4062 30.9582 65.2858 31.1302L64.8831 31.711L64.514 31.2448C64.3846 31.0806 64.1473 31.0536 63.9884 31.1861C63.8256 31.3194 63.801 31.5594 63.932 31.7252L64.1727 32.0281C63.7749 32.0764 63.3787 32.1181 62.9915 32.1613V23.9877H68.1678V31.5214Z" fill="#858585"/>
</g>
</g>
<defs>
<clipPath id="clip0_21283_159">
<rect width="75.8333" height="56" fill="white" transform="translate(0.138916)"/>
</clipPath>
</defs>
</svg>
