<svg width="130" height="40" viewBox="0 0 130 40" fill="none" xmlns="http://www.w3.org/2000/svg">
<path d="M7 16.3862H17.591H24.0237V10.0044L7 16.3862Z" fill="#FF9D28"/>
<path d="M24.0238 10.0042V32.5271L32.0689 7L24.0238 10.0042Z" fill="#68C5ED"/>
<path d="M24.0238 16.3857H17.5911L24.0238 32.5269V16.3857Z" fill="#044D80"/>
<path d="M7 16.3857L19.2374 20.5271L17.591 16.3857H7Z" fill="#E54747"/>
<path d="M45.9865 26.6038C45.9016 26.6887 45.7319 26.8075 45.5282 26.9603C45.3076 27.096 45.019 27.2318 44.6796 27.3846C44.3231 27.5204 43.8988 27.6392 43.3896 27.741C42.8804 27.8428 42.3034 27.8938 41.6584 27.8938C40.4024 27.8938 39.3162 27.6901 38.3996 27.2827C37.4831 26.8754 36.7193 26.3153 36.1253 25.5855C35.5312 24.8556 35.0899 24.007 34.8014 23.0226C34.5298 22.0381 34.3771 20.9519 34.3771 19.7638C34.3771 18.5757 34.5298 17.4894 34.8353 16.488C35.1409 15.4866 35.5991 14.621 36.1932 13.8912C36.8042 13.1614 37.551 12.5843 38.4675 12.1769C39.3841 11.7696 40.4533 11.5659 41.6754 11.5659C42.2864 11.5659 42.8295 11.6168 43.3217 11.7356C43.814 11.8375 44.2383 11.9733 44.6117 12.126C44.9851 12.2788 45.2736 12.4315 45.5282 12.5843C45.7658 12.754 45.9525 12.8898 46.0713 12.9916C46.2071 13.1104 46.3259 13.2632 46.4278 13.4329C46.5296 13.6027 46.5805 13.7894 46.5805 13.993C46.5805 14.2985 46.4617 14.621 46.2241 14.9265C45.9865 15.232 45.7319 15.5206 45.4603 15.7921C45.2736 15.6054 45.0699 15.4187 44.8323 15.2151C44.5947 15.0284 44.3401 14.8417 44.0516 14.7059C43.763 14.5531 43.4406 14.4343 43.0672 14.3325C42.6937 14.2306 42.2864 14.1797 41.8451 14.1797C41.0474 14.1797 40.3854 14.3325 39.8593 14.655C39.3162 14.9775 38.8918 15.3848 38.5694 15.911C38.2469 16.4201 38.0093 17.0142 37.8735 17.6761C37.7377 18.3381 37.6698 19.017 37.6698 19.6959C37.6698 20.4257 37.7377 21.1216 37.8735 21.8005C38.0093 22.4625 38.2469 23.0565 38.6033 23.5657C38.9428 24.0749 39.3841 24.4992 39.9442 24.8047C40.4873 25.1102 41.1832 25.263 42.0148 25.263C42.4561 25.263 42.8465 25.2121 43.2199 25.0932C43.5933 24.9914 43.9158 24.8556 44.1874 24.7029C44.4589 24.5501 44.7135 24.3804 44.9172 24.2107C45.1209 24.0409 45.3076 23.8882 45.4433 23.7694C45.5282 23.8712 45.647 24.007 45.7658 24.1597C45.8846 24.3125 46.0034 24.4822 46.1223 24.6519C46.2241 24.8217 46.3259 24.9914 46.3938 25.1611C46.4787 25.3309 46.5126 25.4836 46.5126 25.6194C46.5126 25.8231 46.4787 25.9928 46.3938 26.1286C46.292 26.2644 46.1562 26.4341 45.9865 26.6038ZM58.0032 24.8047C58.0032 26.0437 58.1899 26.9433 58.5464 27.5034C58.2578 27.6052 58.0032 27.6901 57.7656 27.741C57.528 27.7919 57.2734 27.8089 57.0018 27.8089C56.4417 27.8089 56.0174 27.7071 55.7289 27.4864C55.4403 27.2658 55.2536 26.9603 55.1857 26.5529C54.8463 26.9093 54.388 27.2148 53.8279 27.4694C53.2678 27.724 52.5719 27.8428 51.7572 27.8428C51.3329 27.8428 50.9086 27.7919 50.4843 27.6731C50.0599 27.5543 49.6865 27.3676 49.3301 27.096C48.9907 26.8245 48.7021 26.468 48.4815 26.0267C48.2608 25.5855 48.159 25.0423 48.159 24.3974C48.159 23.5996 48.3457 22.9547 48.7361 22.4625C49.1264 21.9702 49.6017 21.5629 50.1788 21.2744C50.7558 20.9858 51.3838 20.7822 52.0627 20.6803C52.7416 20.5785 53.3527 20.4936 53.9128 20.4766C54.0995 20.4597 54.2862 20.4597 54.4559 20.4597H54.9651V20.0353C54.9651 19.4413 54.8123 19 54.4898 18.7624C54.1674 18.5078 53.6412 18.389 52.9284 18.389C52.2494 18.389 51.6554 18.4908 51.1292 18.7115C50.6031 18.9321 50.0939 19.1867 49.5847 19.4583C49.3641 19.1867 49.1943 18.8982 49.0585 18.5757C48.9228 18.2532 48.8549 18.0156 48.8549 17.8628C48.8549 17.6422 48.9737 17.4385 49.2113 17.2348C49.4489 17.0312 49.7884 16.8445 50.2127 16.6917C50.637 16.522 51.1123 16.4032 51.6724 16.3013C52.2155 16.1995 52.7926 16.1486 53.4036 16.1486C54.2522 16.1486 54.9651 16.2334 55.5422 16.4032C56.1362 16.5729 56.6114 16.8445 56.9679 17.2009C57.3413 17.5573 57.5959 18.0156 57.7486 18.5417C57.9014 19.0849 57.9862 19.7129 57.9862 20.4257L58.0032 24.8047ZM54.999 22.0891H54.6765C54.5747 22.0891 54.4559 22.0891 54.3541 22.106C53.9637 22.14 53.5733 22.1909 53.1999 22.2418C52.8095 22.3097 52.4701 22.4115 52.1815 22.5643C51.876 22.7171 51.6384 22.9207 51.4517 23.1753C51.265 23.4299 51.1632 23.7524 51.1632 24.1428C51.1632 24.5841 51.282 24.9575 51.5366 25.263C51.7912 25.5685 52.2155 25.7212 52.8095 25.7212C53.0981 25.7212 53.3866 25.6873 53.6582 25.6024C53.9297 25.5176 54.1504 25.4157 54.3541 25.2969C54.5577 25.1781 54.7105 25.0423 54.8293 24.8896C54.9481 24.7368 54.999 24.601 54.999 24.4822V22.0891ZM63.8419 17.4725C64.0965 17.1839 64.4868 16.8784 65.013 16.5729C65.5391 16.2674 66.2181 16.1146 67.0158 16.1146C67.5929 16.1146 68.136 16.2165 68.6621 16.4032C69.1883 16.6068 69.6466 16.9123 70.0539 17.3536C70.4613 17.7949 70.7837 18.372 71.0214 19.0849C71.259 19.7977 71.3778 20.6803 71.3778 21.7326C71.3778 22.9547 71.242 23.9561 70.9535 24.7538C70.6649 25.5515 70.3085 26.1625 69.8672 26.6378C69.4259 27.096 68.9337 27.4185 68.3906 27.6052C67.8474 27.7919 67.3043 27.8938 66.7612 27.8938C66.3029 27.8938 65.9125 27.8428 65.5731 27.741C65.2336 27.6392 64.9451 27.5204 64.7244 27.4015C64.4868 27.2827 64.3171 27.147 64.1813 27.0281C64.0625 26.9093 63.9776 26.8245 63.9437 26.7735V32.5443H60.7528V16.4541C60.8377 16.4371 60.9225 16.4201 61.0413 16.4032C61.1432 16.3862 61.245 16.3692 61.3808 16.3692C61.4996 16.3692 61.6524 16.3522 61.8221 16.3522C62.3483 16.3522 62.7895 16.4371 63.146 16.6068C63.5194 16.7766 63.757 17.0651 63.8419 17.4725ZM68.0681 21.8005C68.0681 21.3253 68.0341 20.901 67.9493 20.4936C67.8644 20.0863 67.7456 19.7298 67.5589 19.4413C67.3722 19.1528 67.1346 18.9151 66.8291 18.7454C66.5236 18.5757 66.1502 18.4908 65.7258 18.4908C65.0809 18.4908 64.6226 18.6096 64.368 18.8642C64.1134 19.1188 63.9776 19.3904 63.9776 19.6789V24.6519C64.0965 24.7708 64.3171 24.9235 64.6396 25.0932C64.9621 25.263 65.3355 25.3478 65.7428 25.3478C66.5405 25.3478 67.1176 25.0423 67.491 24.4143C67.8814 23.8033 68.0681 22.9377 68.0681 21.8005ZM73.8558 25.84C73.754 25.5345 73.6691 25.1951 73.6521 24.8556C73.6182 24.5162 73.6012 24.1597 73.6012 23.8203V12.9407C73.7031 12.9237 73.8219 12.9068 73.9577 12.8898C74.0595 12.8728 74.1783 12.8558 74.3141 12.8558C74.4329 12.8558 74.5687 12.8389 74.6875 12.8389C74.9421 12.8389 75.1797 12.8559 75.4343 12.9068C75.6889 12.9577 75.9095 13.0426 76.1132 13.1953C76.3169 13.3311 76.4866 13.5348 76.6054 13.7724C76.7242 14.01 76.7921 14.3325 76.7921 14.7229V16.3862H80.0848V18.7624H76.7921V23.7694C76.7921 24.8556 77.2334 25.3988 78.133 25.3988C78.3536 25.3988 78.5573 25.3648 78.761 25.2969C78.9646 25.229 79.1344 25.1442 79.2871 25.0593C79.4399 24.9744 79.5757 24.8896 79.6945 24.7877C79.8133 24.6859 79.8981 24.618 79.9491 24.5841C80.1867 24.9235 80.3564 25.229 80.4922 25.4836C80.611 25.7382 80.6789 25.9758 80.6789 26.1965C80.6789 26.4001 80.594 26.6038 80.4243 26.8075C80.2546 27.0112 80.0339 27.1809 79.7284 27.3506C79.4229 27.5204 79.0665 27.6561 78.6421 27.758C78.2178 27.8598 77.7596 27.9107 77.2504 27.9107C76.2829 27.9107 75.5192 27.724 74.993 27.3506C74.4668 26.9433 74.0765 26.4511 73.8558 25.84ZM88.1639 25.5345C88.5543 25.5345 88.8937 25.4836 89.1992 25.3988C89.5047 25.3139 89.7593 25.2121 89.997 25.0763C90.2346 24.9575 90.4382 24.8217 90.608 24.6689C90.7777 24.5162 90.9305 24.3804 91.0832 24.2616C91.2699 24.4992 91.4736 24.8047 91.6773 25.1611C91.8809 25.5345 91.9828 25.8231 91.9828 26.0607C91.9828 26.4002 91.7791 26.7226 91.3887 26.9942C91.0662 27.2488 90.591 27.4525 89.997 27.6392C89.4029 27.8259 88.6901 27.9107 87.8754 27.9107C87.1455 27.9107 86.4157 27.8089 85.7028 27.6222C84.99 27.4355 84.362 27.113 83.8019 26.6378C83.2418 26.1625 82.8005 25.5345 82.461 24.7538C82.1216 23.9561 81.9518 22.9716 81.9518 21.7666C81.9518 20.7821 82.1046 19.9335 82.4101 19.2207C82.7156 18.5078 83.123 17.9137 83.6322 17.4555C84.1413 16.9802 84.7184 16.6408 85.3634 16.4201C86.0084 16.1995 86.6533 16.0977 87.3322 16.0977C88.2148 16.0977 88.9446 16.2334 89.5557 16.505C90.1667 16.7766 90.6589 17.15 91.0493 17.6082C91.4396 18.0665 91.7112 18.5927 91.8809 19.1867C92.0507 19.7808 92.1355 20.4088 92.1355 21.0707V21.3932C92.1355 21.512 92.1355 21.6478 92.1186 21.7835C92.1186 21.9193 92.1016 22.0551 92.1016 22.1909C92.1016 22.3267 92.0846 22.4285 92.0676 22.5134H85.1427C85.2106 23.379 85.4652 24.0918 85.9405 24.6519C86.3987 25.246 87.1455 25.5345 88.1639 25.5345ZM89.2332 20.7822C89.2332 20.0353 89.0804 19.4243 88.7919 18.9491C88.5034 18.4739 87.9772 18.2532 87.2304 18.2532C86.5854 18.2532 86.0762 18.4738 85.6859 18.9151C85.2955 19.3564 85.1088 19.9844 85.1088 20.7822H89.2332ZM97.6687 17.5234C97.7705 17.3876 97.8893 17.2348 98.0421 17.0651C98.1948 16.8954 98.3815 16.7426 98.6191 16.6068C98.8398 16.4711 99.0944 16.3522 99.3659 16.2504C99.6375 16.1655 99.926 16.1146 100.249 16.1146C100.435 16.1146 100.639 16.1316 100.843 16.1655C101.046 16.1995 101.25 16.2504 101.437 16.3353C101.623 16.4201 101.759 16.5389 101.878 16.6917C101.98 16.8445 102.048 17.0142 102.048 17.2348C102.048 17.5743 101.963 17.9647 101.793 18.406C101.623 18.8473 101.454 19.2207 101.284 19.5431C101.012 19.3225 100.758 19.1528 100.486 19.034C100.215 18.9151 99.9091 18.8642 99.5526 18.8642C99.0604 18.8642 98.6531 19 98.3306 19.2885C98.0081 19.5771 97.8384 19.8996 97.8384 20.3069V27.8938H94.6475V16.4541C94.7324 16.4371 94.8172 16.4201 94.936 16.4032C95.0379 16.3862 95.1397 16.3692 95.2585 16.3692C95.3773 16.3692 95.5301 16.3522 95.6998 16.3522C96.192 16.3522 96.6333 16.4541 97.0067 16.6408C97.3462 16.8275 97.5668 17.116 97.6687 17.5234ZM106.732 17.5234C106.834 17.3876 106.953 17.2348 107.106 17.0651C107.258 16.8954 107.445 16.7426 107.683 16.6068C107.903 16.4711 108.158 16.3522 108.429 16.2504C108.701 16.1655 108.99 16.1146 109.312 16.1146C109.499 16.1146 109.702 16.1316 109.906 16.1655C110.11 16.1995 110.313 16.2504 110.5 16.3353C110.687 16.4201 110.823 16.5389 110.941 16.6917C111.043 16.8445 111.111 17.0142 111.111 17.2348C111.111 17.5743 111.026 17.9647 110.857 18.406C110.687 18.8473 110.517 19.2207 110.347 19.5431C110.076 19.3225 109.821 19.1528 109.55 19.034C109.278 18.9151 108.973 18.8642 108.616 18.8642C108.124 18.8642 107.717 19 107.394 19.2885C107.072 19.5771 106.902 19.8996 106.902 20.3069V27.8938H103.711V16.4541C103.796 16.4371 103.881 16.4201 104 16.4032C104.101 16.3862 104.203 16.3692 104.322 16.3692C104.441 16.3692 104.594 16.3522 104.763 16.3522C105.256 16.3522 105.697 16.4541 106.07 16.6408C106.41 16.8275 106.647 17.116 106.732 17.5234ZM121.957 24.8047C121.957 26.0437 122.143 26.9433 122.5 27.5034C122.211 27.6052 121.957 27.6901 121.719 27.741C121.482 27.7919 121.227 27.8089 120.955 27.8089C120.395 27.8089 119.971 27.7071 119.682 27.4864C119.394 27.2658 119.207 26.9603 119.139 26.5529C118.8 26.9093 118.342 27.2148 117.781 27.4694C117.221 27.724 116.525 27.8428 115.711 27.8428C115.286 27.8428 114.862 27.7919 114.438 27.6731C114.013 27.5543 113.64 27.3676 113.284 27.096C112.944 26.8245 112.656 26.468 112.435 26.0267C112.214 25.5855 112.113 25.0423 112.113 24.3974C112.113 23.5996 112.299 22.9547 112.69 22.4625C113.08 21.9702 113.555 21.5629 114.132 21.2744C114.709 20.9858 115.337 20.7822 116.016 20.6803C116.695 20.5785 117.306 20.4936 117.866 20.4766C118.053 20.4597 118.24 20.4597 118.409 20.4597H118.919V20.0353C118.919 19.4413 118.766 19 118.443 18.7624C118.121 18.5078 117.595 18.389 116.882 18.389C116.203 18.389 115.609 18.4908 115.083 18.7115C114.557 18.9321 114.047 19.1867 113.538 19.4583C113.318 19.1867 113.148 18.8982 113.012 18.5757C112.876 18.2532 112.808 18.0156 112.808 17.8628C112.808 17.6422 112.927 17.4385 113.165 17.2348C113.402 17.0312 113.742 16.8445 114.166 16.6917C114.591 16.522 115.066 16.4032 115.626 16.3013C116.169 16.1995 116.746 16.1486 117.357 16.1486C118.206 16.1486 118.919 16.2334 119.496 16.4032C120.09 16.5729 120.565 16.8445 120.921 17.2009C121.295 17.5573 121.549 18.0156 121.702 18.5417C121.855 19.0849 121.94 19.7129 121.94 20.4257L121.957 24.8047ZM118.953 22.0891H118.63C118.528 22.0891 118.409 22.0891 118.308 22.106C117.917 22.14 117.527 22.1909 117.153 22.2418C116.763 22.3097 116.424 22.4115 116.135 22.5643C115.83 22.7171 115.592 22.9207 115.405 23.1753C115.219 23.4299 115.117 23.7524 115.117 24.1428C115.117 24.5841 115.236 24.9575 115.49 25.263C115.745 25.5685 116.169 25.7212 116.763 25.7212C117.052 25.7212 117.34 25.6873 117.612 25.6024C117.883 25.5176 118.104 25.4157 118.308 25.2969C118.511 25.1781 118.664 25.0423 118.783 24.8896C118.902 24.7368 118.953 24.601 118.953 24.4822V22.0891Z" fill="#044D80"/>
</svg>
