<svg width="40" height="40" viewBox="0 0 40 40" fill="none" xmlns="http://www.w3.org/2000/svg">
<path d="M12.1198 31.307H11.4948H12.1198ZM12.1198 22.9111H12.7448H12.1198ZM16.25 35.625H15.625L16.25 36.25V35.625ZM16.25 3.75V3.125L15.625 3.75H16.25ZM30.7263 19.2734L30.7541 18.649L30.7402 18.6484H30.7263V19.2734ZM11.4948 9.31776V17.0887H12.7448V9.31776H11.4948ZM11.4948 17.0887C11.4948 17.6843 11.7635 18.2113 12.119 18.6395C12.4758 19.0691 12.9527 19.4405 13.4603 19.743C14.4633 20.3404 15.7141 20.7426 16.6838 20.7426V19.4926C15.9958 19.4926 14.9647 19.1841 14.1001 18.6691C13.6739 18.4152 13.3206 18.1299 13.0807 17.8409C12.8395 17.5504 12.7448 17.2969 12.7448 17.0887H11.4948ZM12.7448 9.31776C12.7448 7.37845 11.1293 5.83874 9.17705 5.83874V7.08874C10.4753 7.08874 11.4948 8.10461 11.4948 9.31776H12.7448ZM12.7448 31.307L12.7448 22.9111H11.4948L11.4948 31.307H12.7448ZM12.7448 22.9111C12.7448 22.7077 12.8354 22.4734 13.068 22.2105C13.3017 21.9464 13.649 21.6895 14.074 21.4631C14.932 21.0061 15.9728 20.7426 16.6838 20.7426V19.4926C15.7371 19.4926 14.4959 19.822 13.4863 20.3599C12.9776 20.6309 12.4948 20.9719 12.1317 21.3823C11.7676 21.7939 11.4948 22.3107 11.4948 22.9111H12.7448ZM11.4948 31.307C11.4948 32.5202 10.4753 33.5361 9.17705 33.5361V34.7861C11.1293 34.7861 12.7448 33.2464 12.7448 31.307H11.4948ZM8.44498 20.7421H16.3713V19.4921H8.44498V20.7421ZM37.7148 6.26888V33.1021H38.9648V6.26888H37.7148ZM37.7148 33.1021C37.7148 34.1466 36.8631 35 35.8061 35V36.25C37.5491 36.25 38.9648 34.8412 38.9648 33.1021H37.7148ZM35.8061 35H16.25V36.25H35.8061V35ZM16.25 4.375H35.8061V3.125H16.25V4.375ZM35.8061 4.375C36.8644 4.375 37.7148 5.22571 37.7148 6.26888H38.9648C38.9648 4.52845 37.5478 3.125 35.8061 3.125V4.375ZM15.625 3.75L15.625 35.625H16.875L16.875 3.75H15.625ZM20.9506 28.0476H33.8046V26.7976H20.9506V28.0476ZM20.9506 30.6988H33.8046V29.4488H20.9506V30.6988ZM22.8125 21.25C22.8125 20.5711 23.4132 19.9345 24.214 19.8977L24.1566 18.649C22.7585 18.7132 21.5625 19.8352 21.5625 21.25H22.8125ZM24.214 19.8977C25.5721 19.8353 26.7623 18.8474 26.912 17.5729L25.6705 17.4271C25.6027 18.0045 24.9974 18.6104 24.1566 18.649L24.214 19.8977ZM28.125 17.5C28.125 18.9241 29.4505 19.8984 30.7263 19.8984V18.6484C29.9687 18.6484 29.375 18.0733 29.375 17.5H28.125ZM30.6985 19.8977C31.1476 19.9177 31.4558 20.055 31.68 20.2442C31.9116 20.4396 32.0929 20.7239 32.2232 21.0928L33.4018 20.6765C33.2196 20.1607 32.9321 19.665 32.4859 19.2887C32.0324 18.9061 31.4537 18.6801 30.7541 18.649L30.6985 19.8977ZM27.3736 11.691C28.8886 11.691 30.1013 12.8995 30.1013 14.371H31.3513C31.3513 12.1925 29.5622 10.441 27.3736 10.441V11.691ZM30.1013 14.371C30.1013 15.8424 28.8886 17.051 27.3736 17.051V18.301C29.5622 18.301 31.3513 16.5495 31.3513 14.371H30.1013ZM27.3736 17.051C25.8585 17.051 24.6459 15.8424 24.6459 14.371H23.3959C23.3959 16.5495 25.1849 18.301 27.3736 18.301V17.051ZM24.6459 14.371C24.6459 12.8995 25.8585 11.691 27.3736 11.691V10.441C25.1849 10.441 23.3959 12.1925 23.3959 14.371H24.6459ZM34.0625 15.9375C34.0625 19.7291 30.9698 22.809 27.147 22.809V24.059C31.6532 24.059 35.3125 20.4263 35.3125 15.9375H34.0625ZM27.147 22.809C23.3241 22.809 20.2314 19.7291 20.2314 15.9375H18.9814C18.9814 20.4263 22.6407 24.059 27.147 24.059V22.809ZM20.2314 15.9375C20.2314 12.1459 23.3241 9.06604 27.147 9.06604V7.81604C22.6407 7.81604 18.9814 11.4487 18.9814 15.9375H20.2314ZM27.147 9.06604C30.9698 9.06604 34.0625 12.1459 34.0625 15.9375H35.3125C35.3125 11.4487 31.6532 7.81604 27.147 7.81604V9.06604ZM8.125 3.75C8.125 3.93183 7.98126 4.23403 7.4439 4.52714C6.93017 4.80735 6.17777 5 5.3125 5V6.25C6.34571 6.25 7.31206 6.02291 8.04246 5.62451C8.74923 5.239 9.375 4.6037 9.375 3.75H8.125ZM5.3125 5C4.44723 5 3.69483 4.80735 3.1811 4.52714C2.64374 4.23403 2.5 3.93183 2.5 3.75H1.25C1.25 4.6037 1.87577 5.239 2.58254 5.62451C3.31294 6.02291 4.27929 6.25 5.3125 6.25V5ZM2.5 3.75C2.5 3.56817 2.64374 3.26597 3.1811 2.97286C3.69483 2.69265 4.44723 2.5 5.3125 2.5V1.25C4.27929 1.25 3.31294 1.47709 2.58254 1.87549C1.87577 2.261 1.25 2.8963 1.25 3.75H2.5ZM5.3125 2.5C6.17777 2.5 6.93017 2.69265 7.4439 2.97286C7.98126 3.26597 8.125 3.56817 8.125 3.75H9.375C9.375 2.8963 8.74923 2.261 8.04246 1.87549C7.31206 1.47709 6.34571 1.25 5.3125 1.25V2.5ZM8.125 6.25C8.125 6.43183 7.98126 6.73403 7.4439 7.02714C6.93017 7.30735 6.17777 7.5 5.3125 7.5V8.75C6.34571 8.75 7.31206 8.52291 8.04246 8.12451C8.74923 7.739 9.375 7.1037 9.375 6.25H8.125ZM5.3125 7.5C4.44723 7.5 3.69483 7.30735 3.1811 7.02714C2.64374 6.73403 2.5 6.43183 2.5 6.25H1.25C1.25 7.1037 1.87577 7.739 2.58254 8.12451C3.31294 8.52291 4.27929 8.75 5.3125 8.75V7.5ZM9.375 6.25V3.75H8.125V6.25H9.375ZM2.5 6.25V3.75H1.25V6.25H2.5ZM8.125 8.75C8.125 8.93183 7.98126 9.23403 7.4439 9.52714C6.93017 9.80735 6.17777 10 5.3125 10V11.25C6.34571 11.25 7.31206 11.0229 8.04246 10.6245C8.74923 10.239 9.375 9.6037 9.375 8.75H8.125ZM5.3125 10C4.44723 10 3.69483 9.80735 3.1811 9.52714C2.64374 9.23403 2.5 8.93183 2.5 8.75H1.25C1.25 9.6037 1.87577 10.239 2.58254 10.6245C3.31294 11.0229 4.27929 11.25 5.3125 11.25V10ZM9.375 8.75V6.25H8.125V8.75H9.375ZM2.5 8.75V6.25H1.25V8.75H2.5ZM8.125 17.5C8.125 17.6818 7.98126 17.984 7.4439 18.2771C6.93017 18.5574 6.17777 18.75 5.3125 18.75V20C6.34571 20 7.31206 19.7729 8.04246 19.3745C8.74923 18.989 9.375 18.3537 9.375 17.5H8.125ZM5.3125 18.75C4.44723 18.75 3.69483 18.5574 3.1811 18.2771C2.64374 17.984 2.5 17.6818 2.5 17.5H1.25C1.25 18.3537 1.87577 18.989 2.58254 19.3745C3.31294 19.7729 4.27929 20 5.3125 20V18.75ZM2.5 17.5C2.5 17.3182 2.64374 17.016 3.1811 16.7229C3.69483 16.4426 4.44723 16.25 5.3125 16.25V15C4.27929 15 3.31294 15.2271 2.58254 15.6255C1.87577 16.011 1.25 16.6463 1.25 17.5H2.5ZM5.3125 16.25C6.17777 16.25 6.93017 16.4426 7.4439 16.7229C7.98126 17.016 8.125 17.3182 8.125 17.5H9.375C9.375 16.6463 8.74923 16.011 8.04246 15.6255C7.31206 15.2271 6.34571 15 5.3125 15V16.25ZM8.125 20C8.125 20.1818 7.98126 20.484 7.4439 20.7771C6.93017 21.0574 6.17777 21.25 5.3125 21.25V22.5C6.34571 22.5 7.31206 22.2729 8.04246 21.8745C8.74923 21.489 9.375 20.8537 9.375 20H8.125ZM5.3125 21.25C4.44723 21.25 3.69483 21.0574 3.1811 20.7771C2.64374 20.484 2.5 20.1818 2.5 20H1.25C1.25 20.8537 1.87577 21.489 2.58254 21.8745C3.31294 22.2729 4.27929 22.5 5.3125 22.5V21.25ZM9.375 20V17.5H8.125V20H9.375ZM2.5 20V17.5H1.25V20H2.5ZM8.125 22.5C8.125 22.6818 7.98126 22.984 7.4439 23.2771C6.93017 23.5574 6.17777 23.75 5.3125 23.75V25C6.34571 25 7.31206 24.7729 8.04246 24.3745C8.74923 23.989 9.375 23.3537 9.375 22.5H8.125ZM5.3125 23.75C4.44723 23.75 3.69483 23.5574 3.1811 23.2771C2.64374 22.984 2.5 22.6818 2.5 22.5H1.25C1.25 23.3537 1.87577 23.989 2.58254 24.3745C3.31294 24.7729 4.27929 25 5.3125 25V23.75ZM9.375 22.5V20H8.125V22.5H9.375ZM2.5 22.5V20H1.25V22.5H2.5ZM8.125 31.25C8.125 31.4318 7.98126 31.734 7.4439 32.0271C6.93017 32.3074 6.17777 32.5 5.3125 32.5V33.75C6.34571 33.75 7.31206 33.5229 8.04246 33.1245C8.74923 32.739 9.375 32.1037 9.375 31.25H8.125ZM5.3125 32.5C4.44723 32.5 3.69483 32.3074 3.1811 32.0271C2.64374 31.734 2.5 31.4318 2.5 31.25H1.25C1.25 32.1037 1.87577 32.739 2.58254 33.1245C3.31294 33.5229 4.27929 33.75 5.3125 33.75V32.5ZM2.5 31.25C2.5 31.0682 2.64374 30.766 3.1811 30.4729C3.69483 30.1926 4.44723 30 5.3125 30V28.75C4.27929 28.75 3.31294 28.9771 2.58254 29.3755C1.87577 29.761 1.25 30.3963 1.25 31.25H2.5ZM5.3125 30C6.17777 30 6.93017 30.1926 7.4439 30.4729C7.98126 30.766 8.125 31.0682 8.125 31.25H9.375C9.375 30.3963 8.74923 29.761 8.04246 29.3755C7.31206 28.9771 6.34571 28.75 5.3125 28.75V30ZM8.125 33.75C8.125 33.9318 7.98126 34.234 7.4439 34.5271C6.93017 34.8074 6.17777 35 5.3125 35V36.25C6.34571 36.25 7.31206 36.0229 8.04246 35.6245C8.74923 35.239 9.375 34.6037 9.375 33.75H8.125ZM5.3125 35C4.44723 35 3.69483 34.8074 3.1811 34.5271C2.64374 34.234 2.5 33.9318 2.5 33.75H1.25C1.25 34.6037 1.87577 35.239 2.58254 35.6245C3.31294 36.0229 4.27929 36.25 5.3125 36.25V35ZM9.375 33.75V31.25H8.125V33.75H9.375ZM2.5 33.75V31.25H1.25V33.75H2.5ZM8.125 36.25C8.125 36.4318 7.98126 36.734 7.4439 37.0271C6.93017 37.3074 6.17777 37.5 5.3125 37.5V38.75C6.34571 38.75 7.31206 38.5229 8.04246 38.1245C8.74923 37.739 9.375 37.1037 9.375 36.25H8.125ZM5.3125 37.5C4.44723 37.5 3.69483 37.3074 3.1811 37.0271C2.64374 36.734 2.5 36.4318 2.5 36.25H1.25C1.25 37.1037 1.87577 37.739 2.58254 38.1245C3.31294 38.5229 4.27929 38.75 5.3125 38.75V37.5ZM9.375 36.25V33.75H8.125V36.25H9.375ZM2.5 36.25V33.75H1.25V36.25H2.5Z" fill="#226099"/>
</svg>
