<svg width="76" height="56" viewBox="0 0 76 56" fill="none" xmlns="http://www.w3.org/2000/svg">
<path d="M47.4938 28.5947C44.3787 28.6965 42.432 29.2548 42.432 31.3206C42.432 32.6589 43.4994 34.0974 46.1908 34.0974C49.7969 34.0974 51.7272 32.1334 51.7272 28.9001V28.5446L47.4946 28.5955L47.4938 28.5947ZM55.1805 32.8609L55.2988 35.7387H52.0991C52.0145 35.0104 51.9809 34.283 51.9809 33.5711C50.2542 35.7042 48.1876 36.3134 45.327 36.3134C41.0945 36.3134 38.8259 34.0785 38.8259 31.4881C38.8259 27.7293 41.9074 26.409 47.2828 26.2908C48.7467 26.258 50.3889 26.258 51.7436 26.258V25.8852C51.7436 23.3793 50.1343 22.3547 47.3427 22.3547C45.277 22.3547 43.7367 23.2184 43.5839 24.6914H39.9614C40.3506 21.0007 44.2277 20.0688 47.6301 20.0688C51.7354 20.0688 55.1641 21.5246 55.1641 25.8425V32.8683L55.1805 32.8609Z" fill="#858585"/>
<path d="M17.7133 26.7671C17.5778 23.5502 15.2501 22.3481 12.7705 22.3481C10.0955 22.3481 7.94517 23.7029 7.57323 26.7671H17.7133ZM7.50509 29.0529C7.69147 32.1852 9.84181 34.0301 12.8042 34.0301C14.8527 34.0301 16.6812 33.2091 17.2904 31.3724H20.8456C20.1518 35.063 16.2231 36.3151 12.8543 36.3151C6.70866 36.3151 4 32.9291 4 28.3755C4 23.3474 6.81047 20.0459 12.9224 20.0459C17.7814 20.0459 21.3366 22.5854 21.3366 28.139V29.0537L7.50509 29.0529Z" fill="#858585"/>
<path d="M30.158 33.9623C33.3577 33.9623 35.5417 31.6601 35.5417 28.1887C35.5417 24.7172 33.3577 22.415 30.158 22.415C26.9748 22.415 24.7744 24.7172 24.7744 28.1887C24.7744 31.6601 26.9748 33.9623 30.158 33.9623ZM21.3358 14H24.7719V22.6515C26.4649 20.6366 28.7844 20.061 31.0694 20.061C34.9119 20.061 39.1625 22.6515 39.1625 28.2387C39.1625 32.9188 35.7765 36.3319 31.0013 36.3319C28.4954 36.3319 26.1595 35.4345 24.7038 33.6569C24.7038 34.3679 24.6709 35.079 24.5855 35.7563H21.2003L21.3186 32.2012V14H21.3358Z" fill="#858585"/>
<path d="M72.7034 20.6211L62.0535 41.5301H58.1946L61.2587 35.7228L53.251 20.6211H57.2807L63.1726 32.4213L69.0473 20.6211H72.7034Z" fill="#858585"/>
</svg>
