<svg width="130" height="41" viewBox="0 0 130 41" fill="none" xmlns="http://www.w3.org/2000/svg">
<path d="M84 20.604C84 31.0996 75.4956 39.604 65 39.604C54.5044 39.604 46 31.0996 46 20.604C46 10.1084 54.5044 1.604 65 1.604C75.4956 1.604 84 10.116 84 20.604Z" fill="#FF492C"/>
<path d="M73.2232 17.5032H68.3136V17.2752C68.3136 16.4392 68.4808 15.7476 68.8152 15.208C69.1496 14.6608 69.7272 14.182 70.5632 13.7564L70.9432 13.5664C71.6196 13.2244 71.7944 12.928 71.7944 12.5784C71.7944 12.1604 71.4296 11.8564 70.8444 11.8564C70.1452 11.8564 69.6208 12.2212 69.256 12.9584L68.3136 12.016C68.5188 11.5752 68.8532 11.2256 69.294 10.9444C69.7424 10.6632 70.2364 10.5264 70.776 10.5264C71.4524 10.5264 72.0376 10.7012 72.5164 11.066C73.0104 11.4308 73.2536 11.9324 73.2536 12.5632C73.2536 13.574 72.6836 14.1896 71.6196 14.7368L71.0192 15.0408C70.3808 15.36 70.0692 15.6488 69.978 16.158H73.2232V17.5032ZM72.79 19.0536H67.4168L64.734 23.7048H70.1072L72.7976 28.356L75.4804 23.7048L72.79 19.0536ZM65.1976 26.8132C61.7776 26.8132 58.996 24.0316 58.996 20.6116C58.996 17.1916 61.7776 14.41 65.1976 14.41L67.3256 9.96399C66.634 9.82719 65.9272 9.75879 65.1976 9.75879C59.2012 9.75879 54.3372 14.6228 54.3372 20.6116C54.3372 26.608 59.1936 31.472 65.1976 31.472C67.584 31.472 69.7956 30.6968 71.5892 29.3896L69.2332 25.316C68.154 26.2432 66.7404 26.8132 65.1976 26.8132Z" fill="white"/>
</svg>
