<svg width="130" height="41" viewBox="0 0 130 41" fill="none" xmlns="http://www.w3.org/2000/svg">
<path d="M114.014 15.1161L113.727 18.5561H112.322C110.079 18.5561 108.913 20.3541 108.913 22.0772V29.8465H104.938V15.1161H108.704L108.789 16.9547C109.579 15.6939 110.962 15.1161 112.666 15.1161H114.014ZM86.4529 29.8464H82.4739V22.0592C82.4739 20.4284 82.333 18.3758 80.0393 18.3758C77.8302 18.3758 76.9502 19.9701 76.9502 21.8265V29.8464H72.9725V15.116H76.6604L76.7446 16.9991C77.5351 15.7383 79.0072 14.7566 81.1788 14.7566C85.1876 14.7566 86.4529 17.6188 86.4529 20.5973V29.8464ZM71.2376 26.4054L70.9594 29.7571C70.0053 30.013 69.1583 30.1048 68.1333 30.1048C64.3844 30.1048 63.2971 28.3857 63.2971 24.9306V10.9621H67.2756V15.1163H71.2345L70.9594 18.5558H67.2756V24.6315C67.2756 26.018 67.6558 26.7669 69.078 26.7669C69.6964 26.7669 70.3843 26.6925 71.2376 26.4054ZM61.9907 15.1161L61.6826 18.5561H60.6015C58.363 18.5561 57.2498 20.3518 57.2498 22.0772V29.8465H53.2709V15.1161H57.0381L57.1165 16.9547C57.911 15.6939 59.2935 15.1161 61.0005 15.1161H61.9907ZM35.3166 28.2144C32.618 29.658 29.9225 30.4908 26.3622 30.3874C19.7618 30.1859 15 26.0874 15 19.1647C15 12.2723 19.8077 7.86847 26.3653 7.76504C29.6894 7.71421 32.6639 8.55771 34.9889 10.6094L32.1882 13.4426C30.7496 12.2161 28.6328 11.4992 26.1032 11.6138C21.9762 11.806 19.4894 14.805 19.4346 18.9284C19.3806 23.396 22.1202 26.4748 26.4028 26.5872C28.4179 26.6376 29.8615 26.3669 31.1107 25.8061V21.2396H26.6596L26.9601 17.4942H35.3166V28.2144ZM103.161 23.8811H92.2535C92.5642 25.7634 94.0439 26.8958 95.8865 26.9471C97.6778 26.9956 98.68 26.4544 99.9902 25.1277L102.586 27.1071C100.741 29.3795 98.5275 30.2065 96.0055 30.2065C91.5695 30.2065 88.2464 27.1049 88.2464 22.4808C88.2464 17.8616 91.5531 14.7565 95.8396 14.7565C100.564 14.7565 103.161 17.6187 103.161 22.6993V23.8811ZM99.1757 20.8014C99.0536 18.9405 97.6595 17.764 95.7393 17.8389C93.8067 17.912 92.5201 19.1706 92.2535 20.8014H99.1757ZM50.7661 20.2005V29.8463H47.2584L47.1715 28.3938C46.0953 29.7268 44.3481 30.2066 42.5492 30.2066C39.8404 30.2066 37.2809 28.8709 37.2274 25.7599C37.1467 20.8702 42.7307 20.5229 46.2375 20.5229H46.9383V20.3294C46.9383 18.7124 45.8684 17.839 43.8537 17.839C42.4074 17.839 40.9799 18.419 39.9242 19.4087L37.6287 17.0766C39.7129 15.387 41.8814 14.7566 44.1916 14.7566C48.7546 14.7566 50.7661 16.8653 50.7661 20.2005ZM46.9383 23.4225H46.3851C44.5015 23.4265 41.193 23.5192 41.2055 25.4889C41.2233 28.2637 46.9383 27.3818 46.9383 24.0355V23.4225ZM110.91 28.1329C110.91 27.1953 111.618 26.4887 112.525 26.4887C113.421 26.4887 114.13 27.1953 114.13 28.1329C114.13 29.0869 113.421 29.7913 112.525 29.7913C111.618 29.7913 110.91 29.0869 110.91 28.1329ZM112.525 30.1208C113.605 30.1208 114.527 29.2817 114.527 28.1329C114.527 26.9956 113.605 26.1583 112.525 26.1583C111.435 26.1583 110.513 26.9956 110.513 28.1329C110.513 29.2817 111.435 30.1208 112.525 30.1208ZM112.105 28.2916H112.504L113.106 29.2817H113.495L112.845 28.2755C113.181 28.2345 113.437 28.0544 113.437 27.6456C113.437 27.1953 113.17 26.9956 112.63 26.9956H111.76V29.2817H112.105V28.2916ZM112.105 27.9969V27.2902H112.577C112.818 27.2902 113.075 27.3424 113.075 27.6255C113.075 27.9764 112.813 27.9969 112.521 27.9969H112.105Z" fill="#182954"/>
</svg>
