<svg width="76" height="56" viewBox="0 0 76 56" fill="none" xmlns="http://www.w3.org/2000/svg">
<path fill-rule="evenodd" clip-rule="evenodd" d="M56.2815 47.4902H56.7805V51.8425L53.7257 48.5476V51.6809H53.2115V47.2838L56.2815 50.5943V47.4902ZM41.9205 47.4902V50.1522C41.9205 50.6235 41.7919 51.0052 41.5348 51.2992C41.2645 51.6225 40.8921 51.7705 40.4214 51.7705C39.9791 51.7705 39.6086 51.6244 39.3363 51.2992C39.066 51.0052 38.9356 50.6215 38.9356 50.1522V47.4902H39.4498V49.975C39.4498 50.8435 39.7636 51.2836 40.4195 51.2836C41.0906 51.2836 41.4195 50.8416 41.4195 49.975V47.4902H41.9205ZM43.4895 47.4902H45.9299V47.9751H44.9601V51.6809H44.4743V47.9751H43.4895V47.4902ZM42.6048 47.4902H43.1189V51.6809H42.6048V47.4902ZM38.1076 47.4902H38.6653L36.894 51.9165L35.1246 47.4902H35.6823L36.8959 50.5943L38.1076 47.4902ZM52.2701 49.5933C52.2701 50.0646 52.1132 50.4618 51.7843 50.7987C51.4837 51.122 51.0981 51.2836 50.6558 51.2836C50.2134 51.2836 49.8278 51.122 49.4989 50.7987C49.17 50.4599 49.0131 50.0626 49.0131 49.5933C49.0131 49.124 49.1548 48.7248 49.4705 48.4016C49.7843 48.0627 50.1851 47.9011 50.6558 47.9011C51.1265 47.9011 51.5121 48.0627 51.8127 48.4016C52.1132 48.7248 52.2701 49.1221 52.2701 49.5933ZM52.1548 48.0491C51.7276 47.6226 51.2267 47.4026 50.6558 47.4026C50.0698 47.4026 49.5707 47.6226 49.1435 48.0491C48.7295 48.4756 48.5159 48.9897 48.5159 49.5933C48.5159 50.2106 48.7295 50.7267 49.1435 51.1512C49.5575 51.564 50.0565 51.7685 50.6558 51.7685C51.2418 51.7685 51.756 51.5621 52.1548 51.1512C52.5688 50.7247 52.7824 50.2106 52.7824 49.5933C52.7843 48.9916 52.5707 48.4756 52.1548 48.0491ZM48.4006 47.4902V47.9751H47.4441V51.6809H46.9299V47.9751H45.9601V47.4902H48.4006ZM24.7882 48.4016C25.0888 48.7248 25.2305 49.1221 25.2305 49.5933C25.2305 50.0646 25.0736 50.4618 24.7599 50.7987C24.4461 51.122 24.0604 51.2836 23.6181 51.2836C23.1757 51.2836 22.7901 51.122 22.4612 50.7987C22.1606 50.4599 21.9905 50.0626 21.9905 49.5933C21.9905 49.124 22.1474 48.7248 22.448 48.4016C22.7617 48.0627 23.1474 47.9011 23.6181 47.9011C24.0888 47.9011 24.4876 48.0647 24.7882 48.4016ZM25.1152 48.0491C24.6861 47.6226 24.1871 47.4026 23.6162 47.4026C23.0302 47.4026 22.5179 47.6226 22.1171 48.0491C21.688 48.4756 21.4744 48.9897 21.4744 49.5933C21.4744 50.2106 21.688 50.7267 22.1171 51.1512C22.5179 51.564 23.0169 51.7685 23.6162 51.7685C24.2154 51.7685 24.7164 51.5621 25.1152 51.1512C25.5443 50.7247 25.7428 50.2106 25.7428 49.5933C25.7447 48.9897 25.5443 48.4756 25.1152 48.0491ZM26.6729 49.975C26.6729 50.8435 27.0018 51.2836 27.6578 51.2836C28.3005 51.2836 28.6426 50.8416 28.6426 49.975V47.4902H29.1417V50.1522C29.1417 50.6235 29.0131 51.0052 28.7409 51.2992C28.4706 51.6225 28.0982 51.7705 27.6559 51.7705C27.1984 51.7705 26.843 51.6244 26.5708 51.2992C26.2854 51.0052 26.1568 50.6215 26.1568 50.1522V47.4902H26.671L26.6729 49.975ZM20.1909 47.4902V51.2116H21.4328V51.6828H19.6918V47.4922L20.1909 47.4902ZM32.4252 49.2117C33.1114 49.4901 33.4385 49.903 33.4385 50.4618C33.4385 50.8435 33.3099 51.1532 33.0528 51.4024C32.8109 51.6517 32.5103 51.7705 32.153 51.7705C31.8241 51.7705 31.5387 51.6672 31.2967 51.4316C31.068 51.2116 30.9262 50.9312 30.8827 50.5943L31.3969 50.4755C31.3969 50.7111 31.4687 50.9019 31.6256 51.0636C31.7825 51.2096 31.9545 51.2836 32.1833 51.2836C32.3969 51.2836 32.5689 51.196 32.7258 51.0344C32.8543 50.8883 32.9262 50.6955 32.9262 50.4599C32.9262 50.1366 32.6974 49.8718 32.2267 49.6654L31.9413 49.5622C31.3704 49.2818 31.0698 48.9293 31.0698 48.4892C31.0698 48.1659 31.1984 47.8855 31.4271 47.6947C31.6691 47.4883 31.9413 47.4006 32.2702 47.4006C32.7409 47.4006 33.0831 47.6207 33.3118 48.0472L32.9129 48.2828C32.756 48.0335 32.5424 47.9011 32.257 47.9011C32.085 47.9011 31.9148 47.9459 31.7863 48.0472C31.6445 48.164 31.5727 48.312 31.5727 48.4873C31.5727 48.7365 31.7579 48.9293 32.1587 49.0754L32.4252 49.2117ZM29.8279 47.4902H30.3421V51.6809H29.8279V47.4902ZM49.8751 9.60104L40.0282 33.5415L37.3118 27.4016L42.3288 13.3321C42.7068 12.2436 44.0263 11.7392 46.2531 11.7392L47.0452 9.60104H35.3496L34.5953 11.7392C36.2551 11.7392 36.9337 12.2436 36.671 13.3321L34.1814 20.4827L29.2759 9.60104C28.3704 8.43459 28.8222 7.85233 30.5973 7.85233V5.32665H19.2778V7.85233C21.3912 7.85233 22.7107 8.43459 23.2778 9.60104L31.5783 27.7891L27.6918 38.476C27.6162 39.9132 25.429 40.6142 21.2022 40.6142L20.4102 42.7543H52.7049L57.1945 32.9223H54.8561C52.669 38.0126 50.1397 40.6181 47.3117 40.6181H32.4819L34.671 34.5931L36.5575 38.4799H40.7825L52.7049 9.60298C53.2701 7.85428 54.7427 6.92151 57.0433 6.92151V4.6665H47.3099V6.92151C50.2531 6.91956 51.083 7.85233 49.8751 9.60104Z" fill="#858585"/>
</svg>
