<svg width="40" height="40" viewBox="0 0 40 40" fill="none" xmlns="http://www.w3.org/2000/svg">
<path d="M2.92968 34.5351L3.58593 34.5365C3.58631 34.3617 3.51694 34.194 3.3932 34.0705C3.26947 33.9471 3.10159 33.8781 2.9268 33.8788L2.92968 34.5351ZM2.87518 34.5353L2.8723 33.8791H2.87226L2.87518 34.5353ZM36.6142 15.3975L36.6171 14.7413C36.4423 14.7405 36.2745 14.8095 36.1507 14.933C36.027 15.0564 35.9576 15.2242 35.958 15.399L36.6142 15.3975ZM36.6816 15.3978L36.6845 14.7416H36.6845L36.6816 15.3978ZM36.6235 19.6625L37.2798 19.6611L36.6235 19.6625ZM29.4094 12.4296L28.7531 12.4299H30.0656L29.4094 12.4296ZM28.5501 10.3818L29.0116 9.91522L28.5501 10.3818ZM32.2943 30.2685H16.5509V31.581H32.2943V30.2685ZM16.5509 30.2685H16.3463V31.581H16.5509V30.2685ZM3.30916 24.5398V24.5194H1.99666V24.5398H3.30916ZM3.30916 24.5194V13.0375H1.99666V24.5194H3.30916ZM6.9817 9.46261H19.7697V8.15011H6.9817V9.46261ZM35.9668 15.7561V19.4645H37.2793V15.7561H35.9668ZM35.9668 19.4645V19.6174H37.2793V19.4645H35.9668ZM35.9668 19.6174V26.6936H37.2793V19.6174H35.9668ZM32.2943 31.581C35.0333 31.581 37.2793 29.4069 37.2793 26.6936H35.9668C35.9668 28.654 34.3368 30.2685 32.2943 30.2685V31.581ZM3.30916 13.0375C3.30916 11.0772 4.93922 9.46261 6.9817 9.46261V8.15011C4.24273 8.15011 1.99666 10.3243 1.99666 13.0375H3.30916ZM2.72102 16.0515H21.8327V14.739H2.72102V16.0515ZM21.8327 16.0515H22.2494V14.739H21.8327V16.0515ZM2.86668 25.1638H14.6842V23.8513H2.86668V25.1638ZM15.8947 26.3322V30.9248H17.2072V26.3322H15.8947ZM15.8947 30.9248V32.7191H17.2072V30.9248H15.8947ZM1.65625 32.7107V26.3322H0.34375V32.7107H1.65625ZM2.9268 33.8788L2.8723 33.8791L2.87806 35.1915L2.93256 35.1913L2.9268 33.8788ZM14.6842 33.8874H6.39001V35.1999H14.6842V33.8874ZM2.26593 37.9833L2.2659 37.9986L3.57839 38.0014L3.57843 37.9861L2.26593 37.9833ZM3.57842 37.9876C3.58511 36.4492 4.83935 35.1999 6.39001 35.1999V33.8874C4.12041 33.8874 2.27578 35.7172 2.26593 37.9818L3.57842 37.9876ZM0.34375 32.7107C0.34375 34.0994 1.49456 35.1977 2.87811 35.1915L2.87226 33.8791C2.1873 33.8821 1.65625 33.344 1.65625 32.7107H0.34375ZM15.8947 32.7191C15.8947 33.3503 15.3669 33.8874 14.6842 33.8874V35.1999C16.0634 35.1999 17.2072 34.1032 17.2072 32.7191H15.8947ZM14.6842 25.1638C15.3669 25.1638 15.8947 25.701 15.8947 26.3322H17.2072C17.2072 24.948 16.0634 23.8513 14.6842 23.8513V25.1638ZM2.86668 23.8513C2.77007 23.8513 2.67448 23.8567 2.58024 23.8672L2.72559 25.1716C2.77164 25.1665 2.81871 25.1638 2.86668 25.1638V23.8513ZM2.58023 23.8672C1.33338 24.0062 0.34375 25.0453 0.34375 26.3322H1.65625C1.65625 25.745 2.11191 25.24 2.72559 25.1716L2.58023 23.8672ZM4.23292 28.9029H13.318V27.5904H4.23292V28.9029ZM4.23293 31.4769H13.318V30.1644H4.23293V31.4769ZM36.6921 2.34375H22.0814V3.65625H36.6921V2.34375ZM19.1173 5.25584V13.1523H20.4298V5.25584H19.1173ZM39.6562 13.142V5.25584H38.3438V13.142H39.6562ZM36.6113 16.0538L36.6787 16.0541L36.6845 14.7416L36.6171 14.7413L36.6113 16.0538ZM22.0814 16.0644H32.336V14.7519H22.0814V16.0644ZM35.9673 19.6639L35.9673 19.6828L37.2798 19.68L37.2798 19.6611L35.9673 19.6639ZM37.2797 19.6596C37.2797 19.6423 37.2795 19.625 37.2793 19.6077L35.9669 19.627C35.9671 19.6398 35.9672 19.6526 35.9673 19.6654L37.2797 19.6596ZM37.2793 19.6077C37.2396 16.9174 35.0396 14.7526 32.336 14.7526V16.0651C34.3254 16.0651 35.9379 17.6571 35.9669 19.6271L37.2793 19.6077ZM38.3438 13.142C38.3438 14.0142 37.6139 14.7457 36.6845 14.7416L36.6787 16.0541C38.3067 16.0613 39.6562 14.7696 39.6562 13.142H38.3438ZM19.1173 13.1523C19.1173 14.6675 20.2881 15.8933 21.7643 16.0479L21.901 14.7425C21.0619 14.6546 20.4298 13.9646 20.4298 13.1523H19.1173ZM21.7643 16.0479C21.8687 16.0588 21.9745 16.0644 22.0814 16.0644V14.7519C22.0202 14.7519 21.9601 14.7487 21.901 14.7425L21.7643 16.0479ZM22.0814 2.34375C20.4585 2.34375 19.1173 3.63351 19.1173 5.25584H20.4298C20.4298 4.38644 21.155 3.65625 22.0814 3.65625V2.34375ZM36.6921 3.65625C37.6185 3.65625 38.3438 4.38644 38.3438 5.25584H39.6562C39.6562 3.63351 38.315 2.34375 36.6921 2.34375V3.65625ZM2.27343 34.5336L2.26593 37.9833L3.57843 37.9861L3.58593 34.5365L2.27343 34.5336ZM35.958 15.399L35.9668 19.4659L37.2793 19.4631L37.2705 15.3961L35.958 15.399ZM35.9668 19.4659L35.9673 19.6639L37.2798 19.6611L37.2793 19.4631L35.9668 19.4659ZM38.0918 3.94296C37.6784 3.43325 37.6784 3.43328 37.6783 3.43332C37.6783 3.43337 37.6782 3.43344 37.6781 3.43353C37.6779 3.43371 37.6775 3.43398 37.6771 3.43434C37.6762 3.43506 37.6749 3.43614 37.6731 3.43757C37.6696 3.44042 37.6643 3.44467 37.6574 3.45028C37.6436 3.46151 37.6231 3.47816 37.5963 3.4999C37.5427 3.54338 37.464 3.60721 37.3638 3.68861C37.1632 3.85143 36.8762 4.08459 36.53 4.36601C35.8378 4.92883 34.9093 5.68482 33.964 6.45731C33.0189 7.22964 32.0563 8.01918 31.2962 8.64885C30.5538 9.26396 29.9664 9.75767 29.8071 9.91522L30.7301 10.8483C30.8363 10.7433 31.3594 10.3009 32.1336 9.65954C32.8902 9.03271 33.8502 8.24536 34.7945 7.47362C35.7387 6.70204 36.6664 5.94678 37.3581 5.38437C37.7039 5.10317 37.9907 4.87022 38.191 4.70758C38.2912 4.62626 38.3697 4.56251 38.4232 4.51911C38.45 4.49741 38.4705 4.48079 38.4843 4.4696C38.4912 4.46401 38.4964 4.45977 38.4999 4.45694C38.5016 4.45552 38.5029 4.45445 38.5038 4.45374C38.5043 4.45338 38.5046 4.45312 38.5048 4.45294C38.5049 4.45285 38.505 4.45278 38.5051 4.45274C38.5051 4.4527 38.5051 4.45267 38.0918 3.94296ZM30.0656 12.4299C30.0659 11.8145 30.3177 11.2564 30.7301 10.8483L29.8071 9.91522C29.158 10.5573 28.7535 11.4464 28.7531 12.4294L30.0656 12.4299ZM20.7269 3.94296C20.3136 4.45268 20.3136 4.4527 20.3137 4.45274C20.3137 4.45278 20.3138 4.45285 20.3139 4.45294C20.3141 4.45312 20.3144 4.45338 20.3149 4.45374C20.3158 4.45445 20.3171 4.45552 20.3188 4.45694C20.3223 4.45977 20.3275 4.46401 20.3344 4.4696C20.3482 4.48079 20.3687 4.49741 20.3955 4.51911C20.449 4.56251 20.5275 4.62626 20.6277 4.70758C20.828 4.87022 21.1148 5.10317 21.4606 5.38437C22.1523 5.94678 23.08 6.70204 24.0242 7.47362C24.9686 8.24536 25.9285 9.03271 26.6851 9.65954C27.4593 10.3009 27.9824 10.7433 28.0886 10.8483L29.0116 9.91522C28.8523 9.75767 28.2649 9.26396 27.5225 8.64885C26.7624 8.01918 25.7998 7.22964 24.8547 6.45731C23.9094 5.68482 22.9809 4.92883 22.2887 4.36601C21.9425 4.08459 21.6555 3.85143 21.4549 3.68861C21.3547 3.60721 21.276 3.54338 21.2224 3.4999C21.1956 3.47816 21.1751 3.46151 21.1613 3.45028C21.1544 3.44467 21.1491 3.44042 21.1456 3.43757C21.1438 3.43614 21.1425 3.43506 21.1416 3.43434C21.1412 3.43398 21.1408 3.43371 21.1406 3.43353C21.1405 3.43344 21.1404 3.43337 21.1404 3.43332C21.1403 3.43328 21.1403 3.43325 20.7269 3.94296ZM30.0656 12.4294C30.0652 11.4464 29.6607 10.5573 29.0116 9.91522L28.0886 10.8483C28.5011 11.2564 28.7529 11.8145 28.7531 12.4299L30.0656 12.4294Z" fill="#3B3585"/>
</svg>
