<svg width="76" height="56" viewBox="0 0 76 56" fill="none" xmlns="http://www.w3.org/2000/svg">
<g clip-path="url(#clip0_21283_1146)">
<path d="M27.1482 44.0446C26.9965 44.0739 25.7832 44.2938 24.5092 44.3304C22.2417 44.389 20.2625 43.5171 20.2473 41.9345C20.217 39.1941 23.0835 37.6921 25.1992 37.2745C26.1472 37.0913 27.9747 36.8788 29.7947 37.3111L28.7407 39.7583C28.4373 39.0916 27.6562 39.0769 27.3377 39.0696C26.5642 39.0549 25.9272 39.2528 25.4571 39.4579C24.3878 39.9342 23.4551 41.4509 24.9717 42.037C25.8059 42.3594 26.8827 42.103 27.9899 41.9345L27.1482 44.0446Z" fill="#858585"/>
<path d="M71.3589 37.2085L69.5389 41.993C69.5617 41.5095 69.6603 39.6118 69.7209 38.5127C69.7437 38.0584 69.6451 37.7141 69.4252 37.4869C69.1522 37.2085 68.7958 37.2085 68.7882 37.2085H64.7311L62.0769 44.1765H65.0268L66.9075 39.2454L66.6876 44.1765H71.6319L74.2861 37.2085H71.3589Z" fill="#858585"/>
<path d="M54.5166 37.2085H51.1192L48.4651 44.1765H55.2901L56.1697 41.8612H52.7497L54.5166 37.2085Z" fill="#858585"/>
<path d="M41.9434 37.2085L39.2892 44.1765H46.6527L47.3655 42.3008H43.3008L43.5966 41.5241H47.3958L48.048 39.8096H44.2487L44.5445 39.0329H48.5257L49.2234 37.2085H41.9434Z" fill="#858585"/>
<path d="M36.6502 37.2085L35.6872 39.7217H33.9278L34.8833 37.2085H31.5543L28.9077 44.1765H32.2292L33.1316 41.8172H34.8985L33.9885 44.1765H37.3176L39.9717 37.2085H36.6502Z" fill="#858585"/>
<path d="M16.8805 37.2085L14.2187 44.1765H17.7147L20.3688 37.2085H16.8805Z" fill="#858585"/>
<path d="M12.2547 44.1765L14.9088 37.2085H9.97208L7.42408 40.9526C7.42408 40.9526 7.58333 38.9963 7.62883 38.5201C7.65917 38.161 7.61367 37.2085 6.71125 37.2085H2.65417L0 44.1765H3.16983L5.096 39.1355L4.69408 44.1765H7.5075L10.9579 39.2235L9.07725 44.1765H12.2547Z" fill="#858585"/>
<path d="M59.2713 37.2085L56.6096 44.1765H60.1055L62.7597 37.2085H59.2713Z" fill="#858585"/>
<path fill-rule="evenodd" clip-rule="evenodd" d="M60.2192 17.6234L60.2117 17.6087C60.0676 17.2057 59.6732 16.6928 59.0211 16.5536C58.786 16.0847 58.3007 15.7916 57.7395 15.7916C57.6106 15.7916 57.5044 15.8063 57.4362 15.8209C57.3982 15.8283 57.2617 15.8576 56.1849 16.1067L54.6 16.473C54.7365 16.0847 54.7213 15.689 54.5469 15.3447C54.327 14.9124 53.8872 14.6413 53.4246 14.6413C53.2577 14.6413 53.1061 14.6779 52.9544 14.7439L52.9376 14.752C52.8764 14.7815 52.7404 14.8471 49.9438 16.6049C49.9059 16.6269 49.8756 16.6489 49.8377 16.6782C48.4651 17.8359 47.9646 18.5099 47.8508 18.6858L47.8291 18.7196C47.7655 18.8185 47.6656 18.9736 47.5778 19.1694C47.5399 19.1511 47.5039 19.1346 47.4678 19.1181C47.4318 19.1016 47.3958 19.0851 47.3579 19.0668C46.7892 18.825 46.1977 18.7005 45.6062 18.7005C44.5217 18.7005 43.7558 19.1034 43.5587 19.228C43.4525 19.2866 43.0506 19.5211 42.4363 19.9754C42.1937 20.1585 41.9662 20.371 41.7766 20.6128C41.3671 20.7007 41.0334 20.8106 40.7832 20.9352C40.4722 21.0891 40.1537 21.3309 39.8201 21.5873L39.7973 21.602C39.767 21.6239 39.7385 21.6459 39.7101 21.6679C39.6817 21.6899 39.6532 21.7119 39.6229 21.7338C39.4788 21.8437 39.1148 22.1368 38.7584 22.6131L38.7205 22.6204C38.675 22.6277 38.22 22.7303 37.6588 22.9868C37.5223 23.0527 37.3782 23.126 37.2417 23.2066C36.9232 23.2139 36.4152 23.2725 35.763 23.4557L35.7327 23.4484C35.7294 23.4479 35.7246 23.4472 35.7183 23.4461L35.6998 23.443C35.57 23.4213 35.1192 23.3458 34.5724 23.3458C34.3146 23.3458 34.0643 23.3604 33.8368 23.3971L33.7974 23.403C33.6134 23.4305 33.1371 23.5018 32.7448 23.6169C32.5401 23.6755 32.0092 23.844 31.4177 24.2177C30.1286 23.9319 28.8167 23.8367 28.0052 23.8001C28.7787 22.7963 29.1655 21.6239 29.0366 20.6201C28.7939 18.7371 27.4744 17.6234 27.0042 17.2863C26.1777 13.9892 23.8117 12.5897 21.8476 12.3699C21.4608 11.9376 20.7177 11.6665 19.8911 11.6665C19.5574 11.6665 19.2237 11.7105 18.9052 11.7911C17.8587 12.0695 17.0322 12.8462 16.8653 13.6814C15.8188 14.524 14.1884 16.4071 14.6358 19.7922C14.2415 20.3051 13.4832 21.6166 13.9988 23.5949C14.3552 24.9504 15.2273 25.9322 16.5317 26.4451C15.5155 26.914 14.6282 27.4929 13.8851 28.1596C13.8696 28.1746 13.8542 28.1887 13.839 28.2025C13.8096 28.2293 13.7812 28.2552 13.7562 28.2842C11.9968 28.3795 10.4043 29.0828 9.13033 30.3284C7.78808 31.6473 7.11316 33.2373 6.7795 34.3363L6.76433 34.3803H35.8767C36.0663 34.351 36.4607 34.2484 36.8322 34.1019C37.3327 33.9114 37.7043 33.6915 37.9773 33.4351C38.5764 33.3545 39.0314 33.208 39.3347 33.1054C39.3347 33.1054 39.4257 33.0761 39.4561 33.0687C39.9793 32.9002 41.1851 32.2921 41.6325 31.4495C42.5273 31.1198 43.1947 30.6801 43.6042 30.1453C44.3785 30.0145 44.9814 29.6893 45.3095 29.5124L45.318 29.5078C46.0991 29.0828 46.6451 28.6652 46.9939 28.2329C47.2821 27.8739 47.4565 27.6028 47.593 27.3024C47.8584 27.1705 48.1542 26.9946 48.5485 26.7382C49.9135 25.8516 50.2017 24.247 50.232 24.0638C50.2396 24.0272 50.2472 23.9832 50.2472 23.9466C50.3154 23.9539 50.3837 23.9539 50.4519 23.9539C51.8225 23.9539 53.6014 23.1284 54.5655 22.681L54.5697 22.679L54.5848 22.6717C54.6509 22.643 54.7112 22.6142 54.7639 22.5891C54.8321 22.5567 54.8876 22.5302 54.9261 22.5178C55.2446 22.3859 55.9043 22.0489 56.5868 21.602C57.4513 21.0451 58.0428 20.5176 58.3537 20.0486C58.4068 19.968 58.4447 19.8874 58.4751 19.8068L59.0362 19.4698C59.1955 19.3745 59.332 19.228 59.423 19.0521C59.5746 18.9716 59.7036 18.8983 59.7491 18.869C60.1965 18.5686 60.3785 18.0923 60.2192 17.6234ZM12.7701 31.4934C13.1796 30.5189 13.8015 29.6543 14.6281 28.9143C15.3636 28.2549 16.2585 27.698 17.2974 27.2511C17.396 27.2144 17.6311 27.1558 17.9268 27.1705C18.0781 27.1801 18.2685 27.2061 18.4722 27.234C18.8913 27.2914 19.3673 27.3566 19.6786 27.3024C19.7771 27.2877 19.8985 27.1632 19.6406 27.0899C19.5648 27.0679 18.9202 26.8041 19.0036 26.4964V26.4817C19.0264 26.4011 19.1477 26.2986 19.3146 26.2839C19.8287 26.2373 20.1915 26.1835 20.4298 26.1481C20.5289 26.1334 20.6065 26.1218 20.6644 26.1154C20.7857 26.1007 20.8767 26.0714 20.8995 26.0201C20.9146 25.9762 20.8843 25.9469 20.7554 25.9542C19.5269 26.0275 17.9496 25.771 17.2519 25.5732C16.0916 25.2215 15.3561 24.4668 15.0603 23.3311C14.7115 22.0123 15.0679 20.9645 15.5229 20.393C15.758 20.1219 16.1523 19.7702 16.2661 19.6749C16.5341 19.4665 16.4133 19.4813 16.1562 19.5128C16.1151 19.5179 16.0704 19.5233 16.0234 19.5284C15.7731 19.5577 15.7049 19.4551 15.6897 19.3599C15.6746 19.2719 15.6594 19.0008 15.6518 18.8616C15.6215 17.8505 15.8035 16.942 16.1978 16.1433C16.6225 15.286 17.2291 14.7145 17.6841 14.3702C17.8737 14.2383 18.1543 14.0478 18.3591 13.9452C18.6776 13.784 18.5031 13.6741 18.1012 13.762C18.1012 13.762 17.9723 13.7913 18.0102 13.6888C18.014 13.6814 18.0178 13.6723 18.0216 13.6631C18.0254 13.6539 18.0292 13.6448 18.033 13.6375C18.0633 13.5788 18.1012 13.5202 18.1391 13.4616C18.3666 13.1832 18.7458 12.9121 19.2008 12.7875C20.0501 12.5604 20.8616 12.7949 21.0436 13.0513C21.0587 13.0953 21.0587 13.1319 20.9981 13.1539C20.8464 13.2125 20.7402 13.3151 20.9905 13.3444C21.0095 13.3467 21.0464 13.3475 21.0991 13.3488C21.2145 13.3514 21.4056 13.3559 21.6502 13.381C21.6578 13.381 21.6654 13.3828 21.673 13.3847C21.6806 13.3865 21.6881 13.3883 21.6957 13.3883C23.22 13.5422 25.0627 14.6046 25.8438 17.1105C25.8552 17.1508 25.8666 17.1929 25.8779 17.235C25.8893 17.2772 25.9007 17.3193 25.9121 17.3596C25.9348 17.4475 25.9576 17.5428 25.9727 17.638C25.7907 17.6747 25.7301 17.7919 25.9121 17.8578C26.0258 17.8945 26.1623 17.9751 26.2685 18.0483C26.2685 18.0483 26.2761 18.0483 26.2761 18.0557C26.2912 18.0703 26.314 18.085 26.3291 18.0923L26.3393 18.0996L26.3533 18.1095C26.3902 18.1355 26.4479 18.1762 26.496 18.2169C27.1557 18.7371 27.8155 19.6163 27.9596 20.7374C28.0809 21.6972 27.5349 22.745 26.8827 23.463C26.6249 23.7268 26.1775 24.1371 25.3964 24.5987C25.222 24.7013 25.3812 24.8332 26.2533 24.5328C26.2678 24.53 26.284 24.5258 26.3011 24.5214C26.3738 24.5028 26.465 24.4794 26.5263 24.5328C26.6097 24.6133 26.6325 24.9724 26.3216 25.3167C26.0182 25.6538 26.4656 25.5366 26.9889 25.0969C27.0875 25.009 27.1633 24.9211 27.2088 24.8185C27.6638 24.8185 29.0667 24.8405 30.5379 25.0969C30.2346 25.412 29.9767 25.7637 29.772 26.1447C29.1198 27.3683 28.9302 28.6652 29.2108 30.006C29.3852 30.8267 29.9085 32.0136 30.5834 32.6804C31.046 33.142 31.7436 33.8308 33.0783 34.1971C33.4802 34.307 33.9276 34.3656 34.4054 34.3656H12.2241C12.209 33.9407 12.2166 32.805 12.7701 31.4934ZM35.6556 33.3357L35.6885 33.3292L35.7099 33.3252C35.7782 33.3179 35.9602 33.2739 36.1877 33.1933C35.8843 33.12 35.581 33.0174 35.2853 32.8782C34.671 32.5998 34.1023 32.1895 33.6397 31.7059C33.1619 31.2003 32.7828 30.5556 32.5477 29.8448C32.3126 29.1341 32.2292 28.3794 32.2974 27.6467C32.3657 26.914 32.6311 26.196 33.0558 25.5585C33.3515 25.1262 33.7155 24.7306 34.1326 24.4082C34.0947 24.4082 34.0492 24.4155 34.0037 24.4228C34.0037 24.4228 33.4577 24.4961 33.0558 24.606C32.6614 24.7159 31.3268 25.2142 30.6063 26.555C29.8859 27.8959 29.9693 29.0609 30.1286 29.8229C30.2878 30.5775 30.7732 31.5594 31.2585 32.043C31.7438 32.5265 32.2823 33.0321 33.3439 33.3252C33.7079 33.4278 34.0947 33.4644 34.4359 33.4644C35.0026 33.4644 35.4732 33.3716 35.6556 33.3357ZM39.1224 32.0576C39.0845 32.0698 39.0434 32.0835 38.9994 32.0982C38.6213 32.2241 38.0213 32.424 37.2266 32.424H37.1432C36.2104 32.4093 35.126 31.9404 34.3298 31.1051C33.5335 30.2698 33.1013 28.9876 33.2226 27.742C33.3439 26.4964 34.125 25.4486 35.0653 24.8771C35.2853 24.7452 35.5128 24.6427 35.7327 24.5694C35.8313 24.5401 35.9223 24.5108 36.0133 24.4815C35.9981 24.5034 35.9829 24.5255 35.9602 24.5547C34.9971 25.9322 35.0653 27.6907 35.5355 28.7385C35.7782 29.2807 36.0588 29.7349 36.4 30.1306C36.8398 30.6508 37.3783 31.0465 37.9849 31.3029C38.5461 31.5447 39.1376 31.6693 39.7443 31.6693C39.8049 31.6693 39.8732 31.6693 39.9338 31.662C39.6457 31.8305 39.3423 31.9843 39.1224 32.0576ZM39.744 30.7534C40.2369 30.7534 40.6767 30.6508 41.0407 30.5263C41.4123 30.4017 41.8446 30.2259 42.2086 29.9914C41.6929 29.9108 41.1924 29.7496 40.7298 29.5151C39.9412 29.1122 39.289 28.5187 38.7885 27.7567L38.7733 27.7273C37.7799 26.1081 37.9164 24.7452 38.2273 23.8733C37.7571 24.0785 37.1429 24.4448 36.7258 25.0457C35.9523 26.1594 36.0357 27.5808 36.3846 28.3648C36.741 29.1488 37.3097 30.0134 38.3562 30.4677C38.8491 30.6728 39.3117 30.7534 39.744 30.7534ZM44.7872 28.5699C44.3625 28.8044 43.771 29.1121 43.0278 29.1268H42.9292C41.8145 29.1268 40.4722 28.6139 39.585 27.2584C38.0228 24.7086 39.7291 22.9648 40.2902 22.5471C40.3515 22.5011 40.4126 22.4548 40.473 22.4089C40.7489 22.1997 41.0115 22.0006 41.223 21.8804C41.1017 22.2174 41.0486 22.4739 41.0334 22.5618C40.9197 23.2066 41.0182 24.0272 41.314 24.7672C41.7007 25.7417 42.3756 26.5257 43.2705 27.0386C43.9985 27.4562 44.7492 27.6614 45.5076 27.6614C45.7123 27.6614 45.9095 27.6467 46.0839 27.6174C45.7275 28.0277 45.1436 28.3721 44.7872 28.5699ZM58.9377 18.2681C59.0514 18.2095 59.1727 18.1436 59.2637 18.085C59.3396 18.041 59.3775 17.9824 59.3472 17.8945C59.2713 17.6966 59.0438 17.3889 58.6571 17.3889C58.5888 17.3889 58.513 17.4036 58.4296 17.4255L58.3841 17.4402C58.1187 17.5281 57.9746 17.5648 57.8987 17.5794L54.1147 18.6711C54.0767 18.6858 54.0464 18.6858 54.0161 18.6785C53.9478 18.6638 53.8872 18.6198 53.8644 18.5466C53.8265 18.444 53.8872 18.3341 53.9933 18.3048L58.2552 17.0958C58.2552 17.0928 58.2539 17.0898 58.2523 17.0862C58.2502 17.0812 58.2476 17.0751 58.2476 17.0665C58.1642 16.7441 57.9063 16.6855 57.7471 16.6855C57.694 16.6855 57.6561 16.6855 57.6333 16.6928C57.5423 16.7148 52.9089 17.7919 52.2795 17.9238L52.2511 17.931C52.0889 17.9724 51.5503 18.1097 51.2102 18.2535C51.0965 18.2975 51.0889 18.1876 51.1875 18.1143C51.2709 18.0483 51.8321 17.7333 52.2492 17.5867C52.3326 17.5574 52.4615 17.4695 52.5449 17.4109L52.5744 17.3887C52.88 17.1584 53.2533 16.8771 53.5838 16.4584C54.0009 15.9308 53.6672 15.5278 53.4246 15.5278C53.3942 15.5278 53.3715 15.5352 53.3487 15.5425C53.2198 15.6084 50.4443 17.3449 50.4443 17.3449C49.9514 17.7626 49.5798 18.107 49.3068 18.3854C49.0793 18.6052 48.8973 18.8177 48.7457 19.0082C48.685 19.0814 48.6471 19.1327 48.6319 19.1547C48.3741 19.5137 48.2527 19.7702 48.2527 19.7702C48.2148 19.8654 48.1693 20.012 48.1693 20.012C48.1693 20.012 47.1683 20.5762 46.956 20.6861C46.7061 20.8131 46.5728 20.9671 46.4799 21.0745C46.4121 21.1528 46.3658 21.2063 46.3114 21.2063C46.137 21.2136 46.3948 20.5908 46.5768 20.327C46.6451 20.2245 46.7664 20.1219 46.9105 20.0266C46.4327 19.8288 45.9929 19.7555 45.6062 19.7555C44.7113 19.7555 44.1122 20.1365 44.1122 20.1365C44.1122 20.1365 43.7331 20.3417 43.0961 20.818C42.1406 21.5287 41.9586 22.7303 41.9586 22.7303C41.8069 23.5436 42.1254 25.3607 43.7482 26.2839C44.4156 26.6649 45.0147 26.7822 45.5076 26.7822C46.1518 26.7822 46.611 26.5778 46.7926 26.497C46.8055 26.4912 46.817 26.4861 46.8271 26.4817C47.0697 26.3792 47.3276 26.2546 47.9494 25.8516C48.958 25.1995 49.1627 23.8953 49.1627 23.8953L48.8063 24.1151C48.8063 24.1151 47.8812 24.6793 47.3807 24.6134C46.9257 24.5474 46.3645 23.866 46.5996 23.8733C46.621 23.8733 46.6651 23.8868 46.7254 23.9054C46.9425 23.972 47.3702 24.1033 47.7143 23.9026C47.881 23.8001 48.5172 23.4269 48.9419 23.1778L48.9428 23.1773C48.8215 22.6863 48.9656 22.4152 49.3523 22.7963C49.6253 23.06 50.5202 23.0454 50.7173 23.038H50.7628C50.9145 23.0307 51.0662 23.0087 51.2102 22.9721C52.262 22.7527 53.4926 22.183 54.1712 21.8688C54.3538 21.7843 54.4964 21.7183 54.5848 21.6825C55.1308 21.4554 57.0418 20.393 57.5954 19.5504C57.6369 19.4902 57.6027 19.43 57.5906 19.4088L57.5878 19.4038C57.5499 19.3599 57.4134 19.2133 57.1859 19.1914C56.9508 19.1694 56.6778 19.2939 56.3972 19.5504C55.4625 20.4045 54.4655 20.6967 54.3389 20.7338L54.327 20.7374C54.3042 20.7447 54.2891 20.7447 54.2739 20.7447C54.1905 20.7447 54.1071 20.6934 54.0843 20.6055C54.054 20.5029 54.1147 20.4003 54.2208 20.371C54.2436 20.371 55.2218 20.0999 56.1242 19.2793C56.4882 18.9349 56.8598 18.781 57.2162 18.8103C57.5423 18.8397 57.7547 19.0082 57.8532 19.1181C58.058 19.0009 58.5509 18.7078 58.5585 18.7004L58.56 18.6991C58.5756 18.6852 58.6821 18.5901 58.5585 18.4074C58.4599 18.2681 58.3461 18.1876 58.2097 18.1582C57.9215 18.0923 57.4892 18.2388 56.9129 18.5979C55.8512 19.25 54.2966 19.609 54.2284 19.6236C54.2132 19.631 54.1981 19.631 54.1829 19.631C54.0995 19.631 54.0161 19.5724 53.9933 19.4844C53.963 19.3745 54.0312 19.272 54.1374 19.25C54.1388 19.2493 54.1522 19.246 54.1762 19.2399C54.4228 19.1781 55.7884 18.8357 56.7006 18.2681C57.3831 17.8359 57.8987 17.6747 58.3007 17.7699C58.5585 17.8359 58.7708 17.9897 58.9301 18.2535C58.9301 18.2535 58.9377 18.2608 58.9377 18.2681ZM22.9094 17.0372C22.9094 17.2863 22.9473 17.5501 23.0156 17.7919C23.0914 18.0337 23.19 18.2755 23.3416 18.4806C23.4706 18.6565 23.6298 18.8323 23.8497 18.8983C23.8497 18.8983 23.8573 18.8983 23.8725 18.9056C23.8801 18.9056 23.8876 18.9056 23.8876 18.9129C23.9407 18.9276 23.9938 18.9276 24.0469 18.9276C24.1303 18.9276 24.2213 18.9129 24.3275 18.891L24.3422 18.8879C24.4441 18.8669 24.5519 18.8446 24.646 18.7957C24.7673 18.7371 24.8356 18.5832 24.8735 18.466C24.9266 18.3341 24.9493 18.1949 24.9569 18.0557C24.9721 17.8066 24.9341 17.5648 24.8583 17.323C24.8583 17.3266 24.8602 17.3321 24.8621 17.3376C24.864 17.3431 24.8659 17.3486 24.8659 17.3523C25.01 17.9824 24.8128 18.5539 24.4336 18.6418C24.0469 18.7298 23.6222 18.2901 23.4781 17.66C23.4402 17.4915 23.4251 17.323 23.4326 17.1764C23.5161 17.2863 23.6374 17.345 23.7511 17.3156C23.9104 17.2717 23.9938 17.0812 23.9407 16.8833C23.8952 16.7075 23.7511 16.5903 23.6146 16.5903C23.6981 16.4804 23.7966 16.4071 23.918 16.3778C24.1682 16.3192 24.4336 16.4877 24.6308 16.7808C24.5853 16.6928 24.5246 16.6122 24.464 16.5317C24.3123 16.3338 24.1076 16.1506 23.8573 16.0994L23.8403 16.0966C23.8021 16.0903 23.7681 16.0847 23.7284 16.0847C23.5009 16.0847 23.2734 16.1873 23.1369 16.3485C22.9549 16.539 22.9094 16.8028 22.9094 17.0372ZM22.7653 17.7992C22.6895 17.5281 22.5909 17.1105 22.6212 16.7148C22.6516 16.1433 22.9549 15.8209 23.3189 15.711C23.7663 15.5718 24.2365 15.7916 24.5095 16.1213C24.6611 16.3045 24.8204 16.5756 24.9341 16.854C24.9796 16.9493 25.0176 17.0445 25.0555 17.1544C25.1692 17.4695 25.2147 17.7772 25.1996 18.0703C25.192 18.2462 25.1541 18.4074 25.101 18.5539C25.0403 18.7151 24.9417 18.9129 24.7597 19.0082C24.6308 19.0741 24.5019 19.1034 24.3881 19.1254H24.3806C24.2744 19.1474 24.1682 19.1694 24.0469 19.1694C23.9786 19.1694 23.9104 19.1621 23.8421 19.1474C23.8384 19.1474 23.8327 19.1456 23.827 19.1437C23.8213 19.1419 23.8156 19.1401 23.8118 19.1401H23.8042C23.801 19.1401 23.7991 19.1401 23.7975 19.1395C23.7953 19.1387 23.7934 19.1369 23.7891 19.1327H23.7815C23.4857 19.0375 23.2961 18.825 23.1445 18.6272C23.0156 18.4587 22.9321 18.2682 22.8639 18.0996C22.8639 18.0996 22.8487 18.063 22.826 17.9971C22.8238 17.9907 22.8216 17.9846 22.8195 17.9786C22.8177 17.9737 22.816 17.969 22.8144 17.9643C22.8035 17.9342 22.7937 17.907 22.7881 17.8798V17.8652C22.7729 17.8359 22.7653 17.8212 22.7653 17.7992ZM19.4741 19.0815C19.6334 19.3745 19.8306 19.5943 20.0353 19.7116C20.1339 19.7702 20.2476 19.7995 20.369 19.7995C20.4676 19.7995 20.5813 19.7849 20.7178 19.7409H20.7254C20.7861 19.7262 20.9529 19.6823 21.0515 19.6383C21.2259 19.565 21.37 19.3306 21.4382 19.0155C21.461 18.8983 21.4761 18.7737 21.4761 18.6492C21.4306 19.0375 21.2335 19.3452 20.9453 19.4112C20.5131 19.5064 20.0353 19.0668 19.8761 18.422C19.8306 18.2462 19.8154 18.0777 19.8306 17.9165C19.914 18.0117 20.0353 18.063 20.1415 18.0337C20.3007 17.9897 20.3917 17.7919 20.3311 17.5941C20.2856 17.4329 20.1566 17.323 20.0277 17.3083C20.1187 17.1911 20.2325 17.1032 20.369 17.0739C20.6799 17.0006 21.0211 17.2204 21.2411 17.5941C21.2373 17.5831 21.2335 17.5739 21.2297 17.5648C21.2259 17.5556 21.2221 17.5464 21.2183 17.5355C21.006 17.1178 20.6268 16.6928 19.9216 16.876C18.9888 17.1178 19.2011 18.2975 19.2997 18.6638C19.3452 18.803 19.4059 18.9422 19.4741 19.0815ZM19.2391 19.1987C19.0798 18.9129 18.9888 18.6199 18.9433 18.2975C18.8978 17.9897 18.8826 17.6673 18.9357 17.3596C18.9888 17.0592 19.1329 16.7808 19.3907 16.5976C19.6031 16.4511 19.8761 16.3558 20.1491 16.3558C20.2173 16.3558 20.2931 16.3631 20.3614 16.3778C21.0363 16.5097 21.3548 17.0445 21.6202 17.7919C21.916 18.6125 21.7112 19.6383 21.1652 19.8655C21.0287 19.9241 20.8012 19.9754 20.8012 19.9754C20.6571 20.012 20.5206 20.0413 20.3766 20.0413C20.2173 20.0413 20.0581 20.0047 19.9064 19.9167C19.6182 19.7702 19.3907 19.4844 19.2391 19.1987ZM24.6536 21.199C23.7966 21.6459 22.8336 21.8877 21.8705 22.0123C22.1283 22.1295 22.3937 22.2248 22.6819 22.2467C22.9397 22.2687 23.2051 22.2248 23.4554 22.1515C23.7132 22.0782 23.9559 21.9683 24.1606 21.7998C24.373 21.6313 24.5246 21.4188 24.6536 21.199ZM25.9351 20.4003C25.8839 20.4074 25.8609 20.3462 25.8321 20.2695L25.829 20.2611C25.7204 20.3995 25.5346 20.5844 25.4056 20.7128C25.3365 20.7815 25.2837 20.8342 25.2678 20.8546C25.192 20.9499 25.1237 21.0598 25.0631 21.1697C25.0423 21.2055 25.0218 21.2414 25.0013 21.2772C24.9174 21.424 24.8345 21.569 24.737 21.7045C24.5701 21.9317 24.3502 22.1295 24.1 22.276C23.6222 22.5545 23.0231 22.6864 22.4771 22.5984C22.189 22.5545 21.916 22.4446 21.6506 22.3273C21.6205 22.3128 21.5902 22.2977 21.5596 22.2825C21.3736 22.1899 21.1764 22.0918 20.9681 22.0855C20.7026 22.0929 20.4221 22.1002 20.1566 22.0636C20.0656 22.0562 19.9822 22.0196 19.9519 21.9243C19.914 21.7998 19.9974 21.6752 20.1339 21.6679C20.1736 21.6679 20.2076 21.6735 20.2458 21.6798L20.2628 21.6826C20.3462 21.6899 20.4372 21.6972 20.5206 21.6972C21.4837 21.7265 22.4696 21.58 23.3871 21.3015C23.9559 21.133 24.5019 20.8986 24.9948 20.5688C25.192 20.4296 25.3891 20.2831 25.5484 20.1072C25.5711 20.0779 25.5939 20.0486 25.6242 20.0193C25.6192 20.0169 25.6133 20.0136 25.6074 20.0104C25.5956 20.0039 25.5838 19.9973 25.5787 19.9973C25.5332 19.9827 25.5256 19.8948 25.6166 19.8728C25.7076 19.8508 25.8366 19.8948 25.8821 19.946C25.9276 19.9973 25.9806 20.0706 25.9882 20.1732C26.011 20.2611 25.9958 20.3857 25.9351 20.4003ZM20.1111 21.5067C19.8609 21.6752 19.8002 21.7998 19.7623 21.8804C19.7244 21.961 19.732 22.0416 19.7471 22.0855C19.7623 22.1295 19.7471 22.1661 19.7092 22.1808H19.7016C19.6637 22.1954 19.6334 22.1881 19.6106 22.1808C19.5879 22.1735 19.5727 22.1515 19.5651 22.1295C19.4969 21.9756 19.5651 21.6386 19.7471 21.4774C19.8154 21.4188 19.914 21.3528 19.9898 21.3162C20.0201 21.3015 20.1111 21.2722 20.1566 21.3309C20.2097 21.4115 20.1566 21.4774 20.1111 21.5067ZM7.90185 34.3656H11.2992C11.2764 33.8161 11.3068 32.5778 11.9134 31.1637C12.1713 30.5482 12.5049 29.9694 12.9144 29.4345C11.7769 29.6617 10.7683 30.2039 9.90385 31.0538C9.03935 31.9037 8.3341 33.0761 7.90185 34.3656Z" fill="#858585"/>
<path d="M75.8333 33.142H4.20117L3.54142 34.8858H75.166L75.8333 33.142Z" fill="#858585"/>
</g>
<defs>
<clipPath id="clip0_21283_1146">
<rect width="75.8333" height="56" fill="white"/>
</clipPath>
</defs>
</svg>
