<svg width="64" height="64" viewBox="0 0 64 64" fill="none" xmlns="http://www.w3.org/2000/svg">
<path fill-rule="evenodd" clip-rule="evenodd" d="M31.7002 38.8261C30.067 38.8261 28.8033 40.0957 28.8033 41.5888V42.0306C28.8033 42.9553 29.5648 43.7245 30.5284 43.7245H32.8721C34.9185 43.7245 36.5971 45.3675 36.5971 47.4184V47.8601C36.5971 50.1824 34.9047 52.0762 32.7002 52.523V54.4898H30.7002V52.523C28.4958 52.0762 26.8033 50.1824 26.8033 47.8601H28.8033C28.8033 49.3533 30.067 50.6229 31.7002 50.6229C33.3335 50.6229 34.5971 49.3533 34.5971 47.8601V47.4184C34.5971 46.4937 33.8357 45.7245 32.8721 45.7245H30.5284C28.482 45.7245 26.8033 44.0815 26.8033 42.0306V41.5888C26.8033 39.2665 28.4958 37.3727 30.7002 36.926V34.9592H32.7002V36.926C34.9047 37.3727 36.5971 39.2665 36.5971 41.5888H34.5971C34.5971 40.0957 33.3335 38.8261 31.7002 38.8261ZM17.1207 31.3711L46.9407 31.2297L35.0558 58.6057C34.9567 58.8339 34.7188 59 34.4357 59H29.5643C29.2813 59 29.0433 58.8339 28.9442 58.6057L17.1207 31.3711ZM47.8108 29.2256L16.2542 29.3751L11.4346 18.2737H52.5654L47.8108 29.2256ZM53.4336 16.2737H10.5664L6.05338 5.87842C5.88754 5.49641 6.15566 5 6.67348 5H57.3265C57.8443 5 58.1125 5.49641 57.9466 5.87842L53.4336 16.2737ZM4.21881 6.67488C3.46356 4.93522 4.75621 3 6.67348 3H57.3265C59.2438 3 60.5364 4.93522 59.7812 6.67488L36.8903 59.4021C36.4695 60.3715 35.504 61 34.4357 61H29.5643C28.496 61 27.5305 60.3715 27.1097 59.4021L4.21881 6.67488Z" fill="#BC4F2D"/>
</svg>
