<svg width="76" height="56" viewBox="0 0 76 56" fill="none" xmlns="http://www.w3.org/2000/svg">
<g id="Stripe">
<g id="Vector">
<path fill-rule="evenodd" clip-rule="evenodd" d="M71.25 28.4673C71.25 23.6822 68.9594 19.9065 64.5815 19.9065C60.1851 19.9065 57.5251 23.6822 57.5251 28.4299C57.5251 34.0561 60.6654 36.8972 65.1726 36.8972C67.3708 36.8972 69.0333 36.3925 70.2894 35.6822V31.9439C69.0333 32.5794 67.5925 32.972 65.7637 32.972C63.9719 32.972 62.3833 32.3364 62.1801 30.1308H71.2131C71.2131 29.8879 71.25 28.9159 71.25 28.4673ZM62.1247 26.6916C62.1247 24.5794 63.3993 23.7009 64.563 23.7009C65.6899 23.7009 66.8906 24.5794 66.8906 26.6916H62.1247Z" fill="#858585"/>
<path fill-rule="evenodd" clip-rule="evenodd" d="M50.3949 19.9065C48.5846 19.9065 47.4208 20.7664 46.7743 21.3645L46.5342 20.2056H42.4703V42L47.0883 41.0093L47.1068 35.7196C47.7718 36.2056 48.7508 36.8972 50.3764 36.8972C53.6829 36.8972 56.6939 34.2056 56.6939 28.2804C56.6754 22.8598 53.6275 19.9065 50.3949 19.9065ZM49.2865 32.785C48.1967 32.785 47.5501 32.3925 47.1068 31.9065L47.0883 24.972C47.5686 24.4299 48.2336 24.0561 49.2865 24.0561C50.9675 24.0561 52.1312 25.9626 52.1312 28.4112C52.1312 30.9159 50.986 32.785 49.2865 32.785Z" fill="#858585"/>
<path fill-rule="evenodd" clip-rule="evenodd" d="M36.1158 18.8037L40.7524 17.7944V14L36.1158 14.9907V18.8037Z" fill="#858585"/>
<path d="M40.7524 20.2243H36.1158V36.5794H40.7524V20.2243Z" fill="#858585"/>
<path fill-rule="evenodd" clip-rule="evenodd" d="M31.1468 21.6075L30.8512 20.2243H26.8612V36.5794H31.4793V25.4953C32.5692 24.0561 34.4164 24.3178 34.989 24.5234V20.2243C34.3979 20 32.2367 19.5888 31.1468 21.6075Z" fill="#858585"/>
<path fill-rule="evenodd" clip-rule="evenodd" d="M21.9107 16.1682L17.4035 17.1402L17.385 32.1121C17.385 34.8785 19.4354 36.9159 22.1693 36.9159C23.684 36.9159 24.7924 36.6355 25.4019 36.2991V32.5047C24.8108 32.7477 21.8922 33.6075 21.8922 30.8411V24.2056H25.4019V20.2243H21.8922L21.9107 16.1682Z" fill="#858585"/>
<path fill-rule="evenodd" clip-rule="evenodd" d="M9.42347 24.972C9.42347 24.243 10.0146 23.9626 10.9936 23.9626C12.3975 23.9626 14.1708 24.3925 15.5747 25.1589V20.7664C14.0415 20.1495 12.5268 19.9065 10.9936 19.9065C7.24375 19.9065 4.75 21.8879 4.75 25.1963C4.75 30.3551 11.7694 29.5327 11.7694 31.757C11.7694 32.6168 11.0306 32.8972 9.99611 32.8972C8.46292 32.8972 6.50486 32.2617 4.95319 31.4019V35.8505C6.67111 36.5981 8.4075 36.9159 9.99611 36.9159C13.8383 36.9159 16.4799 34.9907 16.4799 31.6449C16.4614 26.0748 9.42347 27.0654 9.42347 24.972Z" fill="#858585"/>
</g>
</g>
</svg>
