<svg width="76" height="56" viewBox="0 0 76 56" fill="none" xmlns="http://www.w3.org/2000/svg">
<g id="Tissot" clip-path="url(#clip0_21283_153)">
<g id="Vector">
<path fill-rule="evenodd" clip-rule="evenodd" d="M0.0556641 27.8261H13.0902V31.2609H8.73096V41.7391H4.41489V31.2609H0.0556641V27.8261Z" fill="#858585"/>
<path fill-rule="evenodd" clip-rule="evenodd" d="M14.6871 27.8261H19.0032V41.7391H14.6871V27.8261Z" fill="#858585"/>
<path fill-rule="evenodd" clip-rule="evenodd" d="M20.9023 37H25.0025C25.0889 37.6522 25.2615 38.0435 25.5205 38.3913C25.9521 38.9565 26.5995 39.2174 27.4195 39.2174C28.0238 39.2174 28.4986 39.087 28.8438 38.7826C29.1891 38.4783 29.3186 38.1739 29.3186 37.7826C29.3186 37.4348 29.146 37.087 28.8438 36.8261C28.5417 36.5652 27.808 36.2609 26.6426 36.0435C24.7436 35.6087 23.4056 35.0435 22.6287 34.3478C21.8087 33.6522 21.4202 32.7391 21.4202 31.6522C21.4202 30.9565 21.636 30.2609 22.0245 29.6087C22.4561 28.9565 23.0603 28.4783 23.8804 28.087C24.7004 27.7391 25.8658 27.5217 27.2901 27.5217C29.0596 27.5217 30.4408 27.8696 31.3472 28.5217C32.2967 29.1739 32.8146 30.3478 33.0304 31.8261H28.9733C28.887 31.2174 28.628 30.8696 28.2828 30.5652C27.9375 30.2609 27.4627 30.1304 26.8584 30.1304C26.3405 30.1304 25.9952 30.2174 25.7363 30.4348C25.4773 30.6522 25.3478 30.913 25.3478 31.2174C25.3478 31.4348 25.4341 31.6087 25.65 31.8261C25.8658 32 26.3405 32.1739 27.0743 32.3478C28.9733 32.7391 30.3113 33.1739 31.1314 33.5652C31.9514 33.9565 32.5557 34.4783 32.9009 35.087C33.2894 35.6957 33.462 36.3913 33.462 37.1304C33.462 38.0435 33.2031 38.8696 32.7283 39.6087C32.2535 40.3478 31.563 40.913 30.6566 41.3043C29.7934 41.6957 28.6712 41.8696 27.3332 41.8696C24.9594 41.8696 23.3193 41.3913 22.4129 40.5217C21.5065 39.6957 20.9886 38.4348 20.9023 37Z" fill="#858585"/>
<path fill-rule="evenodd" clip-rule="evenodd" d="M34.4116 37H38.5118C38.5982 37.6522 38.7708 38.0435 39.0298 38.3913C39.4614 38.9565 40.1088 39.2174 40.9288 39.2174C41.5331 39.2174 42.0079 39.087 42.3531 38.7826C42.6984 38.4783 42.8279 38.1739 42.8279 37.7826C42.8279 37.4348 42.6553 37.087 42.3531 36.8261C42.051 36.5652 41.3173 36.2609 40.1519 36.0435C38.2529 35.6087 36.9149 35.0435 36.138 34.3478C35.3179 33.6522 34.9295 32.7391 34.9295 31.6522C34.9295 30.9565 35.1453 30.2609 35.5337 29.6087C35.9654 28.9565 36.5696 28.4783 37.3897 28.087C38.2097 27.7391 39.3751 27.5217 40.7994 27.5217C42.5689 27.5217 43.9501 27.8696 44.8565 28.5217C45.806 29.1739 46.3239 30.3478 46.5397 31.8261H42.4826C42.3963 31.2174 42.1373 30.8696 41.792 30.5652C41.4468 30.2609 40.972 30.1304 40.3678 30.1304C39.8498 30.1304 39.5045 30.2174 39.2456 30.4348C38.9866 30.6522 38.8571 30.913 38.8571 31.2174C38.8571 31.4348 38.9434 31.6087 39.1592 31.8261C39.375 32 39.8498 32.1739 40.5835 32.3478C42.4826 32.7391 43.8206 33.1739 44.6407 33.5652C45.4607 33.9565 46.065 34.4783 46.4102 35.087C46.7987 35.6957 46.9713 36.3913 46.9713 37.1304C46.9713 38.0435 46.7124 38.8696 46.2376 39.6087C45.7628 40.3478 45.0723 40.913 44.1659 41.3043C43.3027 41.6957 42.1805 41.8696 40.8425 41.8696C38.4687 41.8696 36.8286 41.3913 35.9222 40.5217C35.059 39.6957 34.5411 38.4348 34.4116 37Z" fill="#858585"/>
<path fill-rule="evenodd" clip-rule="evenodd" d="M53.7044 31.7826C54.2223 31.1739 54.9129 30.8696 55.7761 30.8696C56.6825 30.8696 57.3731 31.1739 57.9342 31.7826C58.4521 32.3913 58.711 33.3478 58.711 34.6522C58.711 36.2174 58.4521 37.3043 57.9342 37.8696C57.4162 38.4783 56.7257 38.7826 55.7761 38.7826C54.8697 38.7826 54.1792 38.4783 53.6612 37.8696C53.1433 37.2609 52.8843 36.2609 52.8843 34.8261C52.9275 33.3913 53.1865 32.3913 53.7044 31.7826ZM49.561 38.8696C50.2084 39.9565 51.0284 40.7391 52.0643 41.2609C53.1002 41.7391 54.395 42 55.9488 42C57.5025 42 58.7542 41.6957 59.7901 41.1304C60.8259 40.5652 61.6028 39.7391 62.1639 38.6957C62.725 37.6522 62.9839 36.3043 62.9839 34.6957C62.9839 32.4783 62.3797 30.6957 61.128 29.4783C59.8764 28.2174 58.1068 27.6087 55.7761 27.6087C53.5318 27.6087 51.7622 28.2609 50.5105 29.5217C49.2589 30.7826 48.6114 32.5652 48.6114 34.8261C48.6114 36.4348 48.9567 37.7826 49.561 38.8696Z" fill="#858585"/>
<path fill-rule="evenodd" clip-rule="evenodd" d="M62.8976 27.8261H75.889V31.2609H71.5298V41.7391H67.2569V31.2609H62.8976V27.8261Z" fill="#858585"/>
<path d="M25.9952 14V25H37.3465V14H25.9952ZM35.8359 17.3913H33.1167V24.1304H30.1387V17.3913H27.4195V15H35.7927V17.3913H35.8359Z" fill="#858585"/>
<path d="M38.9434 14V25H50.2947V14H38.9434ZM48.6546 20.6957H45.7628V23.6087H43.389V20.6957H40.4972V18.3043H43.389V15.3913H45.7628V18.3043H48.6546V20.6957Z" fill="#858585"/>
</g>
</g>
<defs>
<clipPath id="clip0_21283_153">
<rect width="75.8333" height="56" fill="white" transform="translate(0.0556641)"/>
</clipPath>
</defs>
</svg>
