<svg width="40" height="40" viewBox="0 0 40 40" fill="none" xmlns="http://www.w3.org/2000/svg">
<g clip-path="url(#clip0_21016_32169)">
<path fill-rule="evenodd" clip-rule="evenodd" d="M4.1913 20.6659C4.02602 20.5847 3.87111 20.4755 3.73371 20.3381L3.14313 19.7475C2.47036 19.0747 2.47254 17.9818 3.1453 17.309C3.70375 16.7506 3.79761 15.895 3.49438 15.1658C3.19118 14.4367 2.51469 13.8812 1.72504 13.8812C0.773898 13.8812 0 13.1102 0 12.159V11.3227C0 10.3715 0.773901 9.60039 1.72508 9.60039C2.51477 9.60039 3.19127 9.04493 3.4945 8.31578C3.7978 7.58648 3.70406 6.7309 3.14555 6.1724C2.47291 5.49975 2.47086 4.40715 3.14351 3.73451L3.73439 3.14363C4.40717 2.47084 5.50021 2.47308 6.173 3.14586C6.73134 3.7042 7.58677 3.79815 8.31589 3.49505C9.04505 3.19193 9.60055 2.51528 9.60055 1.72562C9.60055 0.774282 10.3718 0 11.3231 0H12.1583C13.1099 0 13.8814 0.774923 13.8814 1.72653C13.8814 2.51579 14.4365 3.19249 15.1652 3.49558C15.8942 3.79874 16.7497 3.70464 17.3079 3.1464C17.9809 2.47346 19.0745 2.47094 19.7474 3.14388L20.3373 3.73383C21.0103 4.40683 21.0078 5.50051 20.3348 6.17351C19.7766 6.73175 19.6824 7.58728 19.9855 8.31625C20.2886 9.04514 20.9654 9.60039 21.7548 9.60039C22.7065 9.60039 23.4815 10.3719 23.4815 11.3236V12.1581C23.4815 13.1097 22.7065 13.8812 21.7549 13.8812C20.9655 13.8812 20.2887 14.4364 19.9857 15.1653C19.6826 15.8942 19.7769 16.7497 20.3351 17.3079C21.0082 17.981 21.0109 19.0751 20.3377 19.7482L19.7481 20.3378C19.0751 21.0108 17.9815 21.0084 17.3085 20.3354C16.7502 19.777 15.8945 19.683 15.1654 19.9862C14.4366 20.2894 13.8814 20.966 13.8814 21.7554C13.8814 22.7069 13.11 23.4815 12.1585 23.4815H11.3229C10.3717 23.4815 9.60055 22.7075 9.60055 21.7563C9.60055 20.9665 9.04496 20.2899 8.3157 19.9867C7.58644 19.6836 6.73086 19.7775 6.17241 20.3359C5.92784 20.5805 5.62775 20.7364 5.3125 20.8036L5.31255 24.5098C5.31261 30.3898 10.0633 35.1587 15.9257 35.1674C18.7202 35.1715 21.4042 34.0721 23.3963 32.1069L23.401 32.1023L23.401 32.1023L25.3025 30.2654C24.4258 30.2788 23.5398 30.0663 22.7351 29.6154L22.7347 29.6152L17.4928 26.6734L16.3449 26.0291L17.5697 25.5468L38.6812 17.2329L40.0193 16.7059L39.4916 18.0437L31.1701 39.1399L30.6878 40.3627L30.0438 39.2168L28.27 36.0601V36.0655L27.0999 33.9799C26.5531 33.0052 26.3566 31.9105 26.4883 30.8579L24.2718 32.9991C22.0459 35.1938 19.0469 36.422 15.9238 36.4174C9.36869 36.4077 4.06262 31.0764 4.06255 24.5098L4.0625 20.6659L4.1913 20.6659ZM1.25 12.159V11.3227C1.25 11.0645 1.46159 10.8504 1.72508 10.8504C3.12829 10.8504 4.19695 9.88198 4.64867 8.79577C5.10719 7.69324 5.01291 6.272 4.02943 5.28851C3.84302 5.1021 3.84483 4.80095 4.02739 4.61839L4.61827 4.02751C4.80079 3.84499 5.10237 3.843 5.28912 4.02975C6.27225 5.01288 7.6932 5.10762 8.79572 4.64928C9.88218 4.19763 10.8505 3.12873 10.8505 1.72562C10.8505 1.46174 11.065 1.25 11.3231 1.25H12.1583C12.4163 1.25 12.6314 1.46198 12.6314 1.72653C12.6314 3.12887 13.5989 4.19795 14.6852 4.64974C15.7879 5.10832 17.2089 5.0132 18.1918 4.03029C18.379 3.84312 18.6811 3.84536 18.8635 4.02777L19.4535 4.61771C19.6359 4.80017 19.6382 5.1024 19.4509 5.28963C18.468 6.27251 18.3729 7.69351 18.8313 8.79617C19.2831 9.88263 20.3523 10.8504 21.7548 10.8504C22.0195 10.8504 22.2315 11.0656 22.2315 11.3236V12.1581C22.2315 12.416 22.0195 12.6312 21.7549 12.6312C20.3524 12.6312 19.2832 13.599 18.8315 14.6854C18.373 15.7881 18.4685 17.2091 19.4512 18.1918C19.6387 18.3793 19.6363 18.6818 19.4538 18.8643L18.8642 19.454C18.6817 19.6365 18.3796 19.6386 18.1924 19.4515C17.2093 18.4684 15.7881 18.3734 14.6854 18.8321C13.5992 19.2839 12.6314 20.3528 12.6314 21.7554C12.6314 22.0197 12.4166 22.2315 12.1585 22.2315H11.3229C11.0647 22.2315 10.8505 22.0199 10.8505 21.7563C10.8505 20.353 9.88196 19.2842 8.79556 18.8325C7.69295 18.3741 6.27182 18.4687 5.28853 19.452C5.1018 19.6388 4.80021 19.6368 4.6176 19.4542L4.02701 18.8636C3.84445 18.6811 3.84252 18.3796 4.02919 18.1929C5.01251 17.2096 5.10705 15.7884 4.64857 14.6858C4.19688 13.5996 3.12822 12.6312 1.72504 12.6312C1.46157 12.6312 1.25 12.4171 1.25 12.159ZM11.7409 17.1166C14.7098 17.1166 17.1166 14.7098 17.1166 11.7409C17.1166 8.77196 14.7098 6.36518 11.7409 6.36518C8.77199 6.36518 6.36521 8.77196 6.36521 11.7409C6.36521 14.7098 8.77199 17.1166 11.7409 17.1166ZM11.7409 15.8666C14.0195 15.8666 15.8666 14.0194 15.8666 11.7409C15.8666 9.46232 14.0195 7.61518 11.7409 7.61518C9.46235 7.61518 7.61521 9.46232 7.61521 11.7409C7.61521 14.0194 9.46235 15.8666 11.7409 15.8666ZM27.1013 28.5277L33.2076 22.6288L36.3411 19.4979L19.2525 26.2275L23.3461 28.5249C24.5337 29.1903 25.9558 29.1679 27.1013 28.5277ZM28.8247 28.7771C28.8058 28.796 28.7867 28.8148 28.7675 28.8333C27.6189 30.029 27.3697 31.8291 28.149 33.2931L28.1899 33.3659L30.4896 37.4585L37.2258 20.3813L28.825 28.7768L28.8247 28.7771Z" fill="#116B6B"/>
</g>
<defs>
<clipPath id="clip0_21016_32169">
<rect width="40" height="40" fill="white"/>
</clipPath>
</defs>
</svg>
